<mxfile modified="2024-05-16T08:57:38.006Z" host="app.diagrams.net" agent="Mozilla/5.0 (Macintosh; Intel Mac OS X 10_15_7) AppleWebKit/537.36 (KHTML, like Gecko) Chrome/124.0.0.0 Safari/537.36" etag="rrK4XR-YFngZ-FpWPCUU" version="24.3.1" type="device">
  <diagram id="7gcUSTIZ7YSJ5vT40chW" name="Page-1">
    <mxGraphModel dx="1234" dy="760" grid="1" gridSize="10" guides="1" tooltips="1" connect="1" arrows="1" fold="1" page="1" pageScale="1" pageWidth="1169" pageHeight="827" math="0" shadow="0">
      <root>
        <mxCell id="0" />
        <mxCell id="1" parent="0" />
        <mxCell id="2KKbN_FUtunxiqhwRvi9-44" value="" style="whiteSpace=wrap;html=1;" parent="1" vertex="1">
          <mxGeometry x="90" y="70" width="1020" height="610" as="geometry" />
        </mxCell>
        <mxCell id="2KKbN_FUtunxiqhwRvi9-10" value="" style="whiteSpace=wrap;html=1;fillColor=#d5e8d4;strokeColor=#82b366;" parent="1" vertex="1">
          <mxGeometry x="420" y="110" width="300" height="450" as="geometry" />
        </mxCell>
        <mxCell id="2KKbN_FUtunxiqhwRvi9-12" value="" style="ellipse;whiteSpace=wrap;html=1;aspect=fixed;" parent="1" vertex="1">
          <mxGeometry x="450" y="150" width="80" height="80" as="geometry" />
        </mxCell>
        <mxCell id="2KKbN_FUtunxiqhwRvi9-1" value="" style="whiteSpace=wrap;html=1;fillColor=#fff2cc;strokeColor=#d6b656;" parent="1" vertex="1">
          <mxGeometry x="120" y="110" width="280" height="450" as="geometry" />
        </mxCell>
        <mxCell id="2KKbN_FUtunxiqhwRvi9-2" value="Knowledge Base" style="text;strokeColor=none;align=center;fillColor=none;html=1;verticalAlign=middle;whiteSpace=wrap;rounded=0;fontSize=18;" parent="1" vertex="1">
          <mxGeometry x="120" y="120" width="120" height="50" as="geometry" />
        </mxCell>
        <mxCell id="2KKbN_FUtunxiqhwRvi9-9" value="&lt;div&gt;&lt;br&gt;&lt;/div&gt;" style="text;strokeColor=none;align=center;fillColor=none;html=1;verticalAlign=middle;whiteSpace=wrap;rounded=0;" parent="1" vertex="1">
          <mxGeometry x="171" y="360" width="60" height="30" as="geometry" />
        </mxCell>
        <mxCell id="2KKbN_FUtunxiqhwRvi9-21" value="" style="group;shadow=1;" parent="1" vertex="1" connectable="0">
          <mxGeometry x="480" y="460" width="160" height="110" as="geometry" />
        </mxCell>
        <mxCell id="2KKbN_FUtunxiqhwRvi9-20" value="" style="strokeWidth=2;html=1;shape=mxgraph.flowchart.database;whiteSpace=wrap;" parent="2KKbN_FUtunxiqhwRvi9-21" vertex="1">
          <mxGeometry x="40.00428571428571" y="-17.5" width="74.28571428571428" height="110" as="geometry" />
        </mxCell>
        <mxCell id="VzHm-9lvFMYFwHPpRpzN-4" value="" style="shape=image;verticalLabelPosition=bottom;labelBackgroundColor=default;verticalAlign=top;aspect=fixed;imageAspect=0;image=https://seeklogo.com/images/Q/qdrant-icon-logo-843D18553D-seeklogo.com.png;" vertex="1" parent="2KKbN_FUtunxiqhwRvi9-21">
          <mxGeometry x="55.25" y="28" width="45.5" height="52.5" as="geometry" />
        </mxCell>
        <mxCell id="2KKbN_FUtunxiqhwRvi9-30" value="Store the enriched embeddings into qdrant vector db" style="whiteSpace=wrap;html=1;" parent="1" vertex="1">
          <mxGeometry x="498" y="338" width="120" height="60" as="geometry" />
        </mxCell>
        <mxCell id="2KKbN_FUtunxiqhwRvi9-33" value="" style="whiteSpace=wrap;html=1;fillColor=#f8cecc;strokeColor=#b85450;" parent="1" vertex="1">
          <mxGeometry x="760" y="110" width="330" height="440" as="geometry" />
        </mxCell>
        <mxCell id="2KKbN_FUtunxiqhwRvi9-35" value="Vector Database" style="text;strokeColor=none;align=center;fillColor=none;html=1;verticalAlign=middle;whiteSpace=wrap;rounded=0;fontSize=18;" parent="1" vertex="1">
          <mxGeometry x="500" y="120" width="120" height="50" as="geometry" />
        </mxCell>
        <mxCell id="2KKbN_FUtunxiqhwRvi9-36" value="Open AI" style="text;strokeColor=none;align=center;fillColor=none;html=1;verticalAlign=middle;whiteSpace=wrap;rounded=0;fontSize=18;" parent="1" vertex="1">
          <mxGeometry x="770" y="125" width="120" height="50" as="geometry" />
        </mxCell>
        <mxCell id="2KKbN_FUtunxiqhwRvi9-39" style="edgeStyle=orthogonalEdgeStyle;rounded=0;orthogonalLoop=1;jettySize=auto;html=1;exitX=0.5;exitY=1;exitDx=0;exitDy=0;entryX=0.5;entryY=0;entryDx=0;entryDy=0;" parent="1" source="2KKbN_FUtunxiqhwRvi9-37" target="2KKbN_FUtunxiqhwRvi9-38" edge="1">
          <mxGeometry relative="1" as="geometry" />
        </mxCell>
        <mxCell id="2KKbN_FUtunxiqhwRvi9-37" value="Query" style="ellipse;whiteSpace=wrap;html=1;align=center;" parent="1" vertex="1">
          <mxGeometry x="840" y="170" width="100" height="40" as="geometry" />
        </mxCell>
        <mxCell id="2KKbN_FUtunxiqhwRvi9-48" style="edgeStyle=orthogonalEdgeStyle;rounded=0;orthogonalLoop=1;jettySize=auto;html=1;exitX=0.5;exitY=1;exitDx=0;exitDy=0;entryX=0.5;entryY=0;entryDx=0;entryDy=0;" parent="1" source="2KKbN_FUtunxiqhwRvi9-38" target="2KKbN_FUtunxiqhwRvi9-40" edge="1">
          <mxGeometry relative="1" as="geometry" />
        </mxCell>
        <mxCell id="2KKbN_FUtunxiqhwRvi9-57" style="edgeStyle=orthogonalEdgeStyle;rounded=0;orthogonalLoop=1;jettySize=auto;html=1;exitX=1;exitY=0.5;exitDx=0;exitDy=0;" parent="1" source="2KKbN_FUtunxiqhwRvi9-38" edge="1">
          <mxGeometry relative="1" as="geometry">
            <mxPoint x="1000" y="265" as="targetPoint" />
          </mxGeometry>
        </mxCell>
        <mxCell id="2KKbN_FUtunxiqhwRvi9-61" value="Text" style="edgeLabel;html=1;align=center;verticalAlign=middle;resizable=0;points=[];" parent="2KKbN_FUtunxiqhwRvi9-57" vertex="1" connectable="0">
          <mxGeometry x="0.0098" y="-3" relative="1" as="geometry">
            <mxPoint as="offset" />
          </mxGeometry>
        </mxCell>
        <mxCell id="2KKbN_FUtunxiqhwRvi9-38" value="Create Embedding&lt;div&gt;for the Query&lt;/div&gt;" style="whiteSpace=wrap;html=1;" parent="1" vertex="1">
          <mxGeometry x="830" y="240" width="120" height="50" as="geometry" />
        </mxCell>
        <mxCell id="2KKbN_FUtunxiqhwRvi9-46" style="edgeStyle=orthogonalEdgeStyle;rounded=0;orthogonalLoop=1;jettySize=auto;html=1;exitX=0;exitY=0.5;exitDx=0;exitDy=0;" parent="1" source="2KKbN_FUtunxiqhwRvi9-40" edge="1" target="2KKbN_FUtunxiqhwRvi9-20">
          <mxGeometry relative="1" as="geometry">
            <mxPoint x="610" y="520" as="targetPoint" />
            <Array as="points">
              <mxPoint x="830" y="345" />
              <mxPoint x="725" y="345" />
              <mxPoint x="725" y="520" />
            </Array>
          </mxGeometry>
        </mxCell>
        <mxCell id="2KKbN_FUtunxiqhwRvi9-47" value="embedding" style="edgeLabel;html=1;align=center;verticalAlign=middle;resizable=0;points=[];" parent="2KKbN_FUtunxiqhwRvi9-46" vertex="1" connectable="0">
          <mxGeometry x="-0.1741" y="2" relative="1" as="geometry">
            <mxPoint y="1" as="offset" />
          </mxGeometry>
        </mxCell>
        <mxCell id="2KKbN_FUtunxiqhwRvi9-67" style="edgeStyle=orthogonalEdgeStyle;rounded=0;orthogonalLoop=1;jettySize=auto;html=1;exitX=0.5;exitY=1;exitDx=0;exitDy=0;entryX=0.5;entryY=0;entryDx=0;entryDy=0;" parent="1" source="2KKbN_FUtunxiqhwRvi9-40" target="2KKbN_FUtunxiqhwRvi9-49" edge="1">
          <mxGeometry relative="1" as="geometry" />
        </mxCell>
        <mxCell id="2KKbN_FUtunxiqhwRvi9-40" value="Search vector db&amp;nbsp;&lt;div&gt;for top results&lt;/div&gt;" style="whiteSpace=wrap;html=1;" parent="1" vertex="1">
          <mxGeometry x="830" y="315" width="120" height="55" as="geometry" />
        </mxCell>
        <mxCell id="2KKbN_FUtunxiqhwRvi9-45" value="&lt;font style=&quot;font-size: 20px;&quot;&gt;Docker Compose&lt;/font&gt;" style="text;strokeColor=none;align=center;fillColor=none;html=1;verticalAlign=middle;whiteSpace=wrap;rounded=0;" parent="1" vertex="1">
          <mxGeometry x="810" y="610" width="200" height="30" as="geometry" />
        </mxCell>
        <mxCell id="2KKbN_FUtunxiqhwRvi9-63" style="edgeStyle=orthogonalEdgeStyle;rounded=0;orthogonalLoop=1;jettySize=auto;html=1;exitX=1;exitY=0.5;exitDx=0;exitDy=0;entryX=0.5;entryY=1;entryDx=0;entryDy=0;" parent="1" source="2KKbN_FUtunxiqhwRvi9-49" target="2KKbN_FUtunxiqhwRvi9-55" edge="1">
          <mxGeometry relative="1" as="geometry" />
        </mxCell>
        <mxCell id="2KKbN_FUtunxiqhwRvi9-64" value="prompt input" style="edgeLabel;html=1;align=center;verticalAlign=middle;resizable=0;points=[];" parent="2KKbN_FUtunxiqhwRvi9-63" vertex="1" connectable="0">
          <mxGeometry x="0.5163" y="-3" relative="1" as="geometry">
            <mxPoint as="offset" />
          </mxGeometry>
        </mxCell>
        <mxCell id="2KKbN_FUtunxiqhwRvi9-49" value="Create Prompt with the retrieved text" style="whiteSpace=wrap;html=1;" parent="1" vertex="1">
          <mxGeometry x="830" y="400" width="120" height="60" as="geometry" />
        </mxCell>
        <mxCell id="2KKbN_FUtunxiqhwRvi9-50" value="Response to the question based on the knowledge base" style="whiteSpace=wrap;html=1;" parent="1" vertex="1">
          <mxGeometry x="830" y="470" width="120" height="60" as="geometry" />
        </mxCell>
        <mxCell id="2KKbN_FUtunxiqhwRvi9-51" value="" style="group" parent="1" vertex="1" connectable="0">
          <mxGeometry x="437.5" y="142.47" width="122.5" height="107.53" as="geometry" />
        </mxCell>
        <mxCell id="2KKbN_FUtunxiqhwRvi9-52" value="" style="shape=image;verticalLabelPosition=bottom;labelBackgroundColor=default;verticalAlign=top;aspect=fixed;imageAspect=0;image=data:image/png,iVBORw0KGgoAAAANSUhEUgAAAQMAAADCCAMAAAB6zFdcAAAAflBMVEX///8AAAD+/v7y8vLi4uL7+/vU1NR9fX3Gxsb19fVycnLR0dHt7e3l5eW6urp3d3fa2tqqqqqUlJSioqJFRUVpaWkNDQ25ubltbW0nJyecnJyRkZGKioqDg4MyMjI9PT1WVlYgICBLS0tTU1NeXl6wsLAWFhYuLi5AQEAZGRkuQSeZAAAIhklEQVR4nO2ci3bqKhCGgYhJarzG+90abc/7v+BhBkhITKxp46W78621t4oIw88wGYiVMYIgCIIgCIIgCIIgCIIgCIK4ghDi2SYQLwD5AfEvQl5NGhBEc9Bqqo+oSC+EyN4p1rj4BBaY0nyDVc/L+zYF1QlP2kfRUKepZ+ZLzXX9e5O+32t5c5AGBEEQjZIPqxfJQ/rkSvilyEwQBEEQBEEQNaEkmiAIgiAIgiAIAqHdEWkAkAYEQRA3QyeLpAFBEMSXCOf/6/XsF9nvacdzsGOruGiYr8I534hr/upS9nW7wjf1mLy5sW+Z0Br6/XWvopPs7xgGp3W/vxl2brbmdoTwwtDz3CJPlTh4d9RAstaea1YSfKK0Ccnk8sAt/W7jfyrRw4YjZwC8QKfR/i57X/Q3E/Ww9SprBXmDlk0viL1pNmNa0KDdaH8OgnXU0LXEQ93XcSguF+OwOCtvzYYFT7f64RQVe7xZg5pmCRGe+TusNLUMRra3c8Cku/qE9YLJKQhmG/183agGoPE0P9CN7/vonXwHT9X6u3VQdTuPOQ8FDHimTFjE7VawVr2e8g1J9MuxsUL2UYRBkxezsWpwpv5tCuUDXlL4BbXMkqztcz6CDw12qq+hLg6PRceLwZJt1rYPrxNm14xMvUZk7pN6iXQTEGFrCLcqa6n23sH7pwXvakNPfp1B1SRM9HyyaA5qh2imkEKM+S5X8SO3HoXxiwiaaA8GbU+wbuxP+vEg96nOsp/MV4EdawRVQxVdV/NkcwpzVWEZxgwcP2AP1EAw78D5J+fqsqf62begMF6HMBFd1xZ8CdOUFaDNasEwnEBVd24iyTEyqYxgs3N2DcHJxZgStQ6m9ARqW2MWqqCLV6j5IzVgQrl/T4IGEd8GYGaw0AtCsEStwcyWQI/ECZOpaVqDcRa9rSu8ORH9XaYadLLSYdYgrHrleSEUP3QtxODentYAIkF3z8+xcnKlB1vyozPtGA567gR5OiAYDRwJoDn4CARWfliflu9p6EAN3p2aUdrgxmicGO96jAYCcpAVsxrELNzAimRyBSZHs5zrj7TDu+jVYTRQKgSCRSt8ugHPH2Smz+yHzfV13uvMtBKjtAt41VIOcFKP+4dpgP6nJsJqcEJ3hxDeneDM7utokOgrQmAcQTC4em6hTA0MJvmYaqCnGS8sY9sFvLOA7BvdK3qcBjNlZOoHKjgOugmfBpg5LnCS0utdlQbjVAPPVHyzFVFRU4hVQqPBXn9c4se0BBIj6gqfw6qK3UV3Xw2GODlGg8MMB7/lY4xpMUzy7RpMbMVAxzp9Iem4dVvMvqkHmGQa6FCoYylEnt2jNBDqQrRguBYExkT8izmI2r6nRh8402E0yG/bchqMbMWWmX8MB70u0GpZQVCDnvn8m6MBrMOzfto1ej1EA7Re7YA96BJiItLhHV+PXsW3rOpX8SDd7XWNIm1e5JoGsGVcm/Jduiw0d9VAqLykr2Zced+mlWkwgFF1mAjdiY9d65H8tfFnGkS4RgYdoI3B0unoOxrU2C/M9DXf6+tlKlTSDxqoayZM+TEdmVnmo9JlihrE39dAmOyjWPknGtwOJIPa+sGYfwTmidoMTsEPlJGrtGKkV7+jQT5XHtli6xVoedv5nQ4pqvxAsO2FBs6Y771ngvT8AzXvnfm+64FdqQaJ4wfazLbd0kmR7ZlaelHgG1IfiA1NafHsq2ItDC4k0CnGIzSA5AXGNoFTAYkOue6lGoj/3ACAp0jbbBOc7Z11fhCZ8sSMXeS8wxPVGmD0VS41tCx1rcdowNRWdRmB1Stw1AM/djEeCIwHPUxrLAL3gDt7hqL3Q4NMg7F+Y5hOItSYSh2ewsUiYNVr4cDTBAM542urwXfOUC7/gP7ih33SgjdoPABfOB35AiJCqkE4VeLb2womcYCph7M0Xz/X4cLsFw6nbhRMsnIs/oQLvZxpnzCRdVbUoOMqA+BuC/TvA+hZO189m7tpQ/lgbWENDZb8U61tPXsx3GhRO0fUoN1Vwngi00BiHpOjzzINdk75AQ+WdNDkn5M9Ro5FKKs0QEWlYyR6P+xjiz2WnalWaHArAvxsABlxuN5Awg87R0ibpjzh2TmAJcgfdduAiRoMs8OCg93xrJzKWy9dCzNj4dwMHTcOiWO2YP9xvbjOPM8dztaVhO98K+yxD7rDrmOy923R8aQKm4vUHD+9F2LyA3skvbZxU+UaR1M2XYrsHMlqMDEa4EpxjwxMwO0+5h4Lpvfv5q5KZ6ttgX0ET3pltdWATyPfXw/bIrtHaTMCGcSjGI4OnZ/zilTZ6NROz1Y9hd2IhfBCrTJ8dJeC2nCrkkjCvbY8d7jDB8AsrNpet7fXcwjz92GX+k3k88RfiIr36SqfR3qu+xgTKupf/hxLqkHJexigf8EXoGT8qTXQ9xaipOas/no/gLsjap48KeHq5i9XmDHdfqOfvbQGdV1Qrs2SWAT17lXl984vRU0N1BXSO/Un83VH1vICtVtO5vPJrJZsj6KuBj/8FcrGJKj6Hc2rv8d5wzuXNV9x1h4LaUAQBEEQf5ArCUDVO1dOHW9t4qo95ed+FUnhT9HNkgZX0vdbNfhGE1dsqvxt/281RxAE0QAUfEgD4C9pIIqY0vw7bsW0AjPJkVuaT3Au2s33y4oJkXl15e53iZFuc2ktVjGL7njSDks1EH9LA4IgCIIgCIL4h6AElzQgCIK4I+VHN1985OJs54v2Kxr5EcWTo/IzJdeO/CGY/RgjDUpO+Ro29Pdx5TTz73DpGE8xgyAI4ol8+ZWqr/4goMnvZN2R62lM9TvCeWDF59VFt3T7cL6rgXm4qsG/4Acvxl9MzIqQBgRBEK9CISKXZIn1W/yRQU+ANPiaZ47oRdR8avLyIhqQHxAEQRAEQRAEQRAEQfxV/gci+E3fm2SwGQAAAABJRU5ErkJggg==;" parent="2KKbN_FUtunxiqhwRvi9-51" vertex="1">
          <mxGeometry x="23.97" y="26.159999999999997" width="57.06" height="42.74" as="geometry" />
        </mxCell>
        <mxCell id="2KKbN_FUtunxiqhwRvi9-53" value="" style="group" parent="1" vertex="1" connectable="0">
          <mxGeometry x="1010" y="222.5" width="80" height="95" as="geometry" />
        </mxCell>
        <mxCell id="2KKbN_FUtunxiqhwRvi9-56" value="" style="group" parent="2KKbN_FUtunxiqhwRvi9-53" vertex="1" connectable="0">
          <mxGeometry x="-8" y="5" width="80" height="80" as="geometry" />
        </mxCell>
        <mxCell id="2KKbN_FUtunxiqhwRvi9-55" value="" style="ellipse;whiteSpace=wrap;html=1;aspect=fixed;" parent="2KKbN_FUtunxiqhwRvi9-56" vertex="1">
          <mxGeometry width="80" height="80" as="geometry" />
        </mxCell>
        <mxCell id="2KKbN_FUtunxiqhwRvi9-54" value="" style="shape=image;verticalLabelPosition=bottom;labelBackgroundColor=default;verticalAlign=top;aspect=fixed;imageAspect=0;image=data:image/png,iVBORw0KGgoAAAANSUhEUgAAAQMAAADCCAMAAAB6zFdcAAAAflBMVEX///8AAAD+/v7y8vLi4uL7+/vU1NR9fX3Gxsb19fVycnLR0dHt7e3l5eW6urp3d3fa2tqqqqqUlJSioqJFRUVpaWkNDQ25ubltbW0nJyecnJyRkZGKioqDg4MyMjI9PT1WVlYgICBLS0tTU1NeXl6wsLAWFhYuLi5AQEAZGRkuQSeZAAAIhklEQVR4nO2ci3bqKhCGgYhJarzG+90abc/7v+BhBkhITKxp46W78621t4oIw88wGYiVMYIgCIIgCIIgCIIgCIIgCIK4ghDi2SYQLwD5AfEvQl5NGhBEc9Bqqo+oSC+EyN4p1rj4BBaY0nyDVc/L+zYF1QlP2kfRUKepZ+ZLzXX9e5O+32t5c5AGBEEQjZIPqxfJQ/rkSvilyEwQBEEQBEEQNaEkmiAIgiAIgiAIAqHdEWkAkAYEQRA3QyeLpAFBEMSXCOf/6/XsF9nvacdzsGOruGiYr8I534hr/upS9nW7wjf1mLy5sW+Z0Br6/XWvopPs7xgGp3W/vxl2brbmdoTwwtDz3CJPlTh4d9RAstaea1YSfKK0Ccnk8sAt/W7jfyrRw4YjZwC8QKfR/i57X/Q3E/Ww9SprBXmDlk0viL1pNmNa0KDdaH8OgnXU0LXEQ93XcSguF+OwOCtvzYYFT7f64RQVe7xZg5pmCRGe+TusNLUMRra3c8Cku/qE9YLJKQhmG/183agGoPE0P9CN7/vonXwHT9X6u3VQdTuPOQ8FDHimTFjE7VawVr2e8g1J9MuxsUL2UYRBkxezsWpwpv5tCuUDXlL4BbXMkqztcz6CDw12qq+hLg6PRceLwZJt1rYPrxNm14xMvUZk7pN6iXQTEGFrCLcqa6n23sH7pwXvakNPfp1B1SRM9HyyaA5qh2imkEKM+S5X8SO3HoXxiwiaaA8GbU+wbuxP+vEg96nOsp/MV4EdawRVQxVdV/NkcwpzVWEZxgwcP2AP1EAw78D5J+fqsqf62begMF6HMBFd1xZ8CdOUFaDNasEwnEBVd24iyTEyqYxgs3N2DcHJxZgStQ6m9ARqW2MWqqCLV6j5IzVgQrl/T4IGEd8GYGaw0AtCsEStwcyWQI/ECZOpaVqDcRa9rSu8ORH9XaYadLLSYdYgrHrleSEUP3QtxODentYAIkF3z8+xcnKlB1vyozPtGA567gR5OiAYDRwJoDn4CARWfliflu9p6EAN3p2aUdrgxmicGO96jAYCcpAVsxrELNzAimRyBSZHs5zrj7TDu+jVYTRQKgSCRSt8ugHPH2Smz+yHzfV13uvMtBKjtAt41VIOcFKP+4dpgP6nJsJqcEJ3hxDeneDM7utokOgrQmAcQTC4em6hTA0MJvmYaqCnGS8sY9sFvLOA7BvdK3qcBjNlZOoHKjgOugmfBpg5LnCS0utdlQbjVAPPVHyzFVFRU4hVQqPBXn9c4se0BBIj6gqfw6qK3UV3Xw2GODlGg8MMB7/lY4xpMUzy7RpMbMVAxzp9Iem4dVvMvqkHmGQa6FCoYylEnt2jNBDqQrRguBYExkT8izmI2r6nRh8402E0yG/bchqMbMWWmX8MB70u0GpZQVCDnvn8m6MBrMOzfto1ej1EA7Re7YA96BJiItLhHV+PXsW3rOpX8SDd7XWNIm1e5JoGsGVcm/Jduiw0d9VAqLykr2Zced+mlWkwgFF1mAjdiY9d65H8tfFnGkS4RgYdoI3B0unoOxrU2C/M9DXf6+tlKlTSDxqoayZM+TEdmVnmo9JlihrE39dAmOyjWPknGtwOJIPa+sGYfwTmidoMTsEPlJGrtGKkV7+jQT5XHtli6xVoedv5nQ4pqvxAsO2FBs6Y771ngvT8AzXvnfm+64FdqQaJ4wfazLbd0kmR7ZlaelHgG1IfiA1NafHsq2ItDC4k0CnGIzSA5AXGNoFTAYkOue6lGoj/3ACAp0jbbBOc7Z11fhCZ8sSMXeS8wxPVGmD0VS41tCx1rcdowNRWdRmB1Stw1AM/djEeCIwHPUxrLAL3gDt7hqL3Q4NMg7F+Y5hOItSYSh2ewsUiYNVr4cDTBAM542urwXfOUC7/gP7ih33SgjdoPABfOB35AiJCqkE4VeLb2womcYCph7M0Xz/X4cLsFw6nbhRMsnIs/oQLvZxpnzCRdVbUoOMqA+BuC/TvA+hZO189m7tpQ/lgbWENDZb8U61tPXsx3GhRO0fUoN1Vwngi00BiHpOjzzINdk75AQ+WdNDkn5M9Ro5FKKs0QEWlYyR6P+xjiz2WnalWaHArAvxsABlxuN5Awg87R0ibpjzh2TmAJcgfdduAiRoMs8OCg93xrJzKWy9dCzNj4dwMHTcOiWO2YP9xvbjOPM8dztaVhO98K+yxD7rDrmOy923R8aQKm4vUHD+9F2LyA3skvbZxU+UaR1M2XYrsHMlqMDEa4EpxjwxMwO0+5h4Lpvfv5q5KZ6ttgX0ET3pltdWATyPfXw/bIrtHaTMCGcSjGI4OnZ/zilTZ6NROz1Y9hd2IhfBCrTJ8dJeC2nCrkkjCvbY8d7jDB8AsrNpet7fXcwjz92GX+k3k88RfiIr36SqfR3qu+xgTKupf/hxLqkHJexigf8EXoGT8qTXQ9xaipOas/no/gLsjap48KeHq5i9XmDHdfqOfvbQGdV1Qrs2SWAT17lXl984vRU0N1BXSO/Un83VH1vICtVtO5vPJrJZsj6KuBj/8FcrGJKj6Hc2rv8d5wzuXNV9x1h4LaUAQBEEQf5ArCUDVO1dOHW9t4qo95ed+FUnhT9HNkgZX0vdbNfhGE1dsqvxt/281RxAE0QAUfEgD4C9pIIqY0vw7bsW0AjPJkVuaT3Au2s33y4oJkXl15e53iZFuc2ktVjGL7njSDks1EH9LA4IgCIIgCIL4h6AElzQgCIK4I+VHN1985OJs54v2Kxr5EcWTo/IzJdeO/CGY/RgjDUpO+Ro29Pdx5TTz73DpGE8xgyAI4ol8+ZWqr/4goMnvZN2R62lM9TvCeWDF59VFt3T7cL6rgXm4qsG/4Acvxl9MzIqQBgRBEK9CISKXZIn1W/yRQU+ANPiaZ47oRdR8avLyIhqQHxAEQRAEQRAEQRAEQfxV/gci+E3fm2SwGQAAAABJRU5ErkJggg==;" parent="2KKbN_FUtunxiqhwRvi9-56" vertex="1">
          <mxGeometry x="9.929999999999959" y="19.97" width="60.15" height="45.06" as="geometry" />
        </mxCell>
        <mxCell id="2KKbN_FUtunxiqhwRvi9-58" style="edgeStyle=orthogonalEdgeStyle;rounded=0;orthogonalLoop=1;jettySize=auto;html=1;exitX=0;exitY=0.75;exitDx=0;exitDy=0;entryX=1;entryY=0.75;entryDx=0;entryDy=0;" parent="1" source="2KKbN_FUtunxiqhwRvi9-54" target="2KKbN_FUtunxiqhwRvi9-38" edge="1">
          <mxGeometry relative="1" as="geometry" />
        </mxCell>
        <mxCell id="2KKbN_FUtunxiqhwRvi9-62" value="emb" style="edgeLabel;html=1;align=center;verticalAlign=middle;resizable=0;points=[];" parent="2KKbN_FUtunxiqhwRvi9-58" vertex="1" connectable="0">
          <mxGeometry x="-0.2675" y="-1" relative="1" as="geometry">
            <mxPoint as="offset" />
          </mxGeometry>
        </mxCell>
        <mxCell id="2KKbN_FUtunxiqhwRvi9-65" style="edgeStyle=orthogonalEdgeStyle;rounded=0;orthogonalLoop=1;jettySize=auto;html=1;exitX=1;exitY=0.5;exitDx=0;exitDy=0;entryX=1;entryY=0.5;entryDx=0;entryDy=0;" parent="1" source="2KKbN_FUtunxiqhwRvi9-55" target="2KKbN_FUtunxiqhwRvi9-50" edge="1">
          <mxGeometry relative="1" as="geometry" />
        </mxCell>
        <mxCell id="2KKbN_FUtunxiqhwRvi9-66" value="LLM Output" style="edgeLabel;html=1;align=center;verticalAlign=middle;resizable=0;points=[];" parent="2KKbN_FUtunxiqhwRvi9-65" vertex="1" connectable="0">
          <mxGeometry x="0.6335" y="2" relative="1" as="geometry">
            <mxPoint as="offset" />
          </mxGeometry>
        </mxCell>
        <mxCell id="VzHm-9lvFMYFwHPpRpzN-38" style="edgeStyle=orthogonalEdgeStyle;rounded=0;orthogonalLoop=1;jettySize=auto;html=1;" edge="1" parent="1" source="VzHm-9lvFMYFwHPpRpzN-1" target="VzHm-9lvFMYFwHPpRpzN-37">
          <mxGeometry relative="1" as="geometry" />
        </mxCell>
        <mxCell id="VzHm-9lvFMYFwHPpRpzN-1" value="Azure Blob Storage" style="shape=image;verticalLabelPosition=bottom;labelBackgroundColor=#ffffff;verticalAlign=top;aspect=fixed;imageAspect=0;image=data:image/svg+xml,PHN2ZyB4bWxuczpjYz0iaHR0cDovL2NyZWF0aXZlY29tbW9ucy5vcmcvbnMjIiB4bWxuczpkYz0iaHR0cDovL3B1cmwub3JnL2RjL2VsZW1lbnRzLzEuMS8iIHhtbG5zOmlua3NjYXBlPSJodHRwOi8vd3d3Lmlua3NjYXBlLm9yZy9uYW1lc3BhY2VzL2lua3NjYXBlIiB4bWxuczpyZGY9Imh0dHA6Ly93d3cudzMub3JnLzE5OTkvMDIvMjItcmRmLXN5bnRheC1ucyMiIHhtbG5zOnNvZGlwb2RpPSJodHRwOi8vc29kaXBvZGkuc291cmNlZm9yZ2UubmV0L0RURC9zb2RpcG9kaS0wLmR0ZCIgeG1sbnM6c3ZnPSJodHRwOi8vd3d3LnczLm9yZy8yMDAwL3N2ZyIgeG1sbnM9Imh0dHA6Ly93d3cudzMub3JnLzIwMDAvc3ZnIiB4bWxuczp4bGluaz0iaHR0cDovL3d3dy53My5vcmcvMTk5OS94bGluayIgdmVyc2lvbj0iMS4xIiBpZD0ic3ZnMTA5Mjk0IiBpbmtzY2FwZTp2ZXJzaW9uPSIwLjkyLjMgKDI0MDU1NDYsIDIwMTgtMDMtMTEpIiBzb2RpcG9kaTpkb2NuYW1lPSJhenVyZV9ibG9iX3N0b3JhZ2Uuc3ZnIiB4PSIwcHgiIHk9IjBweCIgdmlld0JveD0iMCAwIDc2LjQyIDY2LjMiIHN0eWxlPSJlbmFibGUtYmFja2dyb3VuZDpuZXcgMCAwIDc2LjQyIDY2LjM7IiB4bWw6c3BhY2U9InByZXNlcnZlIj4mI3hhOzxzb2RpcG9kaTpuYW1lZHZpZXcgYm9yZGVyY29sb3I9IiM2NjY2NjYiIGJvcmRlcm9wYWNpdHk9IjEiIGZpdC1tYXJnaW4tYm90dG9tPSIwIiBmaXQtbWFyZ2luLWxlZnQ9IjAiIGZpdC1tYXJnaW4tcmlnaHQ9IjAiIGZpdC1tYXJnaW4tdG9wPSIwIiBncmlkdG9sZXJhbmNlPSIxMCIgZ3VpZGV0b2xlcmFuY2U9IjEwIiBpZD0ibmFtZWR2aWV3MTA5Mjk2IiBpbmtzY2FwZTpjdXJyZW50LWxheWVyPSJzdmcxMDkyOTQiIGlua3NjYXBlOmN4PSI1MC45NDUxOTMiIGlua3NjYXBlOmN5PSI0NC4xOTk1NTEiIGlua3NjYXBlOnBhZ2VvcGFjaXR5PSIwIiBpbmtzY2FwZTpwYWdlc2hhZG93PSIyIiBpbmtzY2FwZTp3aW5kb3ctaGVpZ2h0PSIxMDE3IiBpbmtzY2FwZTp3aW5kb3ctbWF4aW1pemVkPSIxIiBpbmtzY2FwZTp3aW5kb3ctd2lkdGg9IjE5MjAiIGlua3NjYXBlOndpbmRvdy14PSItOCIgaW5rc2NhcGU6d2luZG93LXk9Ii04IiBpbmtzY2FwZTp6b29tPSI4Ljc0NjA0MTEiIG9iamVjdHRvbGVyYW5jZT0iMTAiIHBhZ2Vjb2xvcj0iI2ZmZmZmZiIgc2hvd2dyaWQ9ImZhbHNlIj4mI3hhOwk8L3NvZGlwb2RpOm5hbWVkdmlldz4mI3hhOzxnIGlkPSJnMTA5MjkyIiB0cmFuc2Zvcm09InRyYW5zbGF0ZSgtNC4wMjYzMiwtNC4wMjM4NzY1KSI+JiN4YTsJPHRpdGxlIGlkPSJ0aXRsZTEwOTI2NCI+UGFnZS0xPC90aXRsZT4mI3hhOwk8ZyBpZD0iZ3JvdXAyNjQtMSIgdHJhbnNmb3JtPSJ0cmFuc2xhdGUoNC4wMjYzMiwtNC4wMjYzMikiPiYjeGE7CQk8dGl0bGUgaWQ9InRpdGxlMTA5MjY2Ij5BenVyZSBCbG9iIFN0b3JhZ2UgKERlcHJlY2F0ZWQpPC90aXRsZT4mI3hhOwkJPGcgaWQ9Imdyb3VwMjY1LTIiPiYjeGE7CQkJPHRpdGxlIGlkPSJ0aXRsZTEwOTI2OCI+U2hlZXQuMjY1PC90aXRsZT4mI3hhOwkJCTxnIGlkPSJzaGFwZTI2Ni0zIj4mI3hhOwkJCQk8dGl0bGUgaWQ9InRpdGxlMTA5MjcwIj5TaGVldC4yNjY8L3RpdGxlPiYjeGE7CQkJCTxwYXRoIGlkPSJwYXRoMTA5MjcyIiBpbmtzY2FwZTpjb25uZWN0b3ItY3VydmF0dXJlPSIwIiBzdHlsZT0iZmlsbDojMDA3OEQ3OyIgZD0iTTU3LjM2LDguMDVIMTkuMDVMMCw0MS4ybDE5LjA1LDMzLjE1aDM4LjMxICAgICAgTDc2LjQyLDQxLjJMNTcuMzYsOC4wNXogTTU3LjU2LDU2LjA5YzAsMi43OC0yLjM4LDUuMTYtNS4xNiw1LjE2SDI0LjIyYy0yLjc4LDAtNS4xNy0yLjM4LTUuMTctNS4xNlYyNi41MSAgICAgIGMwLTIuNzgsMi4zOS01LjE2LDUuMTctNS4xNmgyMC44NGMxLjk4LDAsMy45NywwLDMuOTcsMGgwLjU5bDcuOTQsNy45NHY0LjE3TDU3LjU2LDU2LjA5eiIvPiYjeGE7CQkJPC9nPiYjeGE7CQkJPGcgaWQ9InNoYXBlMjY3LTUiIHRyYW5zZm9ybT0idHJhbnNsYXRlKDMyLjE1NTEsLTIxLjQzNjgpIj4mI3hhOwkJCQk8dGl0bGUgaWQ9InRpdGxlMTA5Mjc1Ij5TaGVldC4yNjc8L3RpdGxlPiYjeGE7CQkJCTxwYXRoIGlkPSJwYXRoMTA5Mjc3IiBpbmtzY2FwZTpjb25uZWN0b3ItY3VydmF0dXJlPSIwIiBzdHlsZT0iZmlsbDojMDA3OEQ3OyIgZD0iTTMuMTgsNjhjMC0wLjQtMC4yLTAuNi0wLjItMC44ICAgICAgYzAtMC4yLTAuMi0wLjM5LTAuNC0wLjU5cy0wLjItMC4yLTAuNC0wLjJzLTAuMzksMC0wLjU5LDBjLTAuNCwwLTAuNiwwLTAuOCwwLjJDMC42LDY2LjgxLDAuNCw2NywwLjIsNjcuNFMwLDY4LjE5LDAsNjguNTkgICAgICBjMCwwLjQsMCwwLjk5LDAsMS43OWMwLDAuNzksMCwxLjM5LDAsMS45OGMwLDAuNiwwLjIsMSwwLjQsMS4xOWMwLjIsMC40LDAuMzksMC42LDAuNTksMC42YzAuMiwwLjIsMC40LDAuMiwwLjgsMC4yICAgICAgYzAuMTksMCwwLjM5LDAsMC41OS0wLjJjMC4yLDAsMC40LTAuMiwwLjQtMC40YzAuMi0wLjIsMC4yLTAuMzksMC40LTAuNTljMC0wLjIsMC4xOS0wLjQsMC4xOS0wLjhjMC0wLjIsMC0wLjU5LDAuMi0wLjk5ICAgICAgYzAtMC40LDAtMC43OSwwLTEuMTljMC0wLjYsMC0wLjk5LDAtMS4zOUMzLjE4LDY4LjU5LDMuMTgsNjguMzksMy4xOCw2OHoiLz4mI3hhOwkJCTwvZz4mI3hhOwkJCTxnIGlkPSJzaGFwZTI2OC03IiB0cmFuc2Zvcm09InRyYW5zbGF0ZSg0MS4wODcxLC0zNi45MTg5KSI+JiN4YTsJCQkJPHRpdGxlIGlkPSJ0aXRsZTEwOTI4MCI+U2hlZXQuMjY4PC90aXRsZT4mI3hhOwkJCQk8cGF0aCBpZD0icGF0aDEwOTI4MiIgaW5rc2NhcGU6Y29ubmVjdG9yLWN1cnZhdHVyZT0iMCIgc3R5bGU9ImZpbGw6IzAwNzhENzsiIGQ9Ik0zLjE4LDY4YzAtMC40LTAuMi0wLjYtMC4yLTAuOCAgICAgIGMwLTAuMi0wLjItMC4zOS0wLjQtMC41OXMtMC4yLTAuMi0wLjQtMC4ycy0wLjM5LDAtMC41OSwwYy0wLjQsMC0wLjYsMC0wLjgsMC4yQzAuNiw2Ni44MSwwLjQsNjcsMC4yLDY3LjRTMCw2OC4xOSwwLDY4LjU5ICAgICAgYzAsMC40LDAsMC45OSwwLDEuNzljMCwwLjc5LDAsMS4zOSwwLDEuOThjMCwwLjYsMC4yLDEsMC40LDEuMTljMC4yLDAuNCwwLjM5LDAuNiwwLjU5LDAuNmMwLjIsMC4yLDAuNCwwLjIsMC44LDAuMiAgICAgIGMwLjE5LDAsMC4zOSwwLDAuNTktMC4yYzAuMiwwLDAuNC0wLjIsMC40LTAuNGMwLjItMC4yLDAuMi0wLjM5LDAuNC0wLjU5YzAtMC4yLDAuMTktMC40LDAuMTktMC44YzAtMC4yLDAtMC41OSwwLjItMC45OSAgICAgIGMwLTAuNCwwLTAuNzksMC0xLjE5YzAtMC42LDAtMC45OSwwLTEuMzlDMy4zNyw2OC43OSwzLjM3LDY4LjM5LDMuMTgsNjh6Ii8+JiN4YTsJCQk8L2c+JiN4YTsJCQk8ZyBpZD0ic2hhcGUyNjktOSIgdHJhbnNmb3JtPSJ0cmFuc2xhdGUoMjEuODMzNywtMTUuODc5MSkiPiYjeGE7CQkJCTx0aXRsZSBpZD0idGl0bGUxMDkyODUiPlNoZWV0LjI2OTwvdGl0bGU+JiN4YTsJCQkJPHBhdGggaWQ9InBhdGgxMDkyODciIGlua3NjYXBlOmNvbm5lY3Rvci1jdXJ2YXR1cmU9IjAiIHN0eWxlPSJmaWxsOiMwMDc4RDc7IiBkPSJNMjYuNCw0MC4wMWMtMC43OSwwLTEuOTksMC0zLjE4LDBIMi4zOCAgICAgIEMwLjk5LDQwLjAxLDAsNDEsMCw0Mi4zOXYyOS41OGMwLDEuMzksMC45OSwyLjM4LDIuMzgsMi4zOGgyOC4xOWMxLjE5LDAsMi4zOC0wLjk5LDIuMzgtMi4zOFY0Ni41NkgyNi42di02LjU1SDI2LjR6ICAgICAgIE04LjczLDQ1Ljk2di0wLjE5di0wLjJjMCwwLDAsMCwwLjItMC4ybDIuMzgtMS41OWMwLDAsMCwwLDAuMiwwaDAuMmgwLjJjMC4yLDAsMC4yLDAsMC40LDBjMC4xOSwwLDAuMzksMCwwLjU5LDBzMC4yLDAsMC40LDAgICAgICBoMC4yYzAsMCwwLDAsMCwwLjJ2OS4zM2gxLjc4aDAuMmMwLDAsMCwwLDAuMiwwLjJjMC4yLDAuMTksMCwwLjE5LDAsMC4xOWMwLDAuMiwwLDAuMiwwLDAuNHMwLDAuNCwwLDAuNGMwLDAuMiwwLDAuMiwwLDAuMiAgICAgIHMwLDAuMi0wLjIsMC4yYzAsMCwwLDAtMC4yLDBIOS4xM2MwLDAsMCwwLTAuMiwwYzAsMCwwLDAtMC4yLTAuMnYtMC4yYzAtMC4yLDAtMC4yLDAtMC40czAtMC40LDAtMC40YzAtMC4xOSwwLTAuMTksMC0wLjE5ICAgICAgczAtMC4yLDAuMi0wLjJjMCwwLDAsMCwwLjIsMGgyLjE4di03LjM1bC0xLjc4LDFjLTAuMiwwLTAuMiwwLjE5LTAuNCwwLjE5aC0wLjJjMCwwLDAtMC4xOS0wLjItMC4xOWMwLTAuMiwwLTAuMiwwLTAuNiAgICAgIEM4LjczLDQ2LjE2LDguNzMsNDUuOTYsOC43Myw0NS45NnogTTE1LjY4LDY3LjJjLTAuMiwwLjgtMC40LDEuMzktMC43OSwxLjc5Yy0wLjQsMC41OS0wLjgsMC45OS0xLjE5LDEuMTkgICAgICBjLTAuNiwwLjItMS4yLDAuNC0xLjk5LDAuNHMtMS4zOS0wLjItMS45OC0wLjRjLTAuNi0wLjItMS0wLjYtMS4xOS0xLjE5Yy0wLjItMC42LTAuNi0xLjE5LTAuNi0xLjc5ICAgICAgYy0wLjItMC43OS0wLjItMS41OS0wLjItMi4zOGMwLTAuOTksMC0xLjc5LDAuMi0yLjM4YzAuMi0wLjgsMC40LTEuMzksMC43OS0xLjc5YzAuNC0wLjM5LDAuOC0wLjk5LDEuMTktMS4xOSAgICAgIGMwLjYtMC4yLDEuMi0wLjQsMS45OS0wLjRzMS4zOSwwLjIsMS45OCwwLjRjMC42LDAuMiwxLDAuNiwxLjIsMS4xOWMwLjE5LDAuNiwwLjU5LDEuMTksMC41OSwxLjc5YzAuMiwwLjc5LDAuMiwxLjU5LDAuMiwyLjM4ICAgICAgQzE1Ljg4LDY1LjgxLDE1Ljg4LDY2LjYxLDE1LjY4LDY3LjJ6IE0yNC42MSw2OS45OGMwLDAuMiwwLDAuMiwwLDAuMnMwLDAuMi0wLjIsMC4yYzAsMCwwLDAtMC4xOSwwaC02LjE2YzAsMCwwLDAtMC4yLDAgICAgICBjMCwwLDAsMC0wLjE5LTAuMnYtMC4yYzAtMC4yLDAtMC4yLDAtMC40YzAtMC4xOSwwLTAuMzksMC0wLjM5YzAtMC4yLDAtMC4yLDAtMC4yczAtMC4yLDAuMTktMC4yYzAsMCwwLDAsMC4yLDBoMi4xOXYtNy4zNCAgICAgIGwtMS43OSwwLjk5Yy0wLjIsMC0wLjIsMC4yLTAuNCwwLjJoLTAuMmMwLDAsMC0wLjItMC4xOS0wLjJjMC0wLjIsMC0wLjIsMC0wLjZjMC0wLjIsMC0wLjIsMC0wLjM5di0wLjJ2LTAuMmMwLDAsMCwwLDAuMTktMC4yICAgICAgbDIuMzktMS41OWMwLDAsMCwwLDAuMTksMGgwLjJoMC4yYzAuMiwwLDAuMiwwLDAuNCwwYzAuMiwwLDAuNCwwLDAuNTksMGMwLjIsMCwwLjIsMCwwLjQsMGgwLjJjMCwwLDAsMCwwLDAuMnY5LjMzaDEuNzloMC4xOSAgICAgIGMwLDAsMCwwLDAuMiwwLjJ2MC4yYzAsMC4yLDAsMC4yLDAsMC4zOUMyNC42MSw2OS43OCwyNC42MSw2OS45OCwyNC42MSw2OS45OHogTTI0LjgxLDUxLjcyYy0wLjIsMC43OS0wLjQsMS4zOS0wLjc5LDEuNzkgICAgICBjLTAuNCwwLjU5LTAuOCwwLjk5LTEuMTksMS4xOWMtMC42LDAuMi0xLjE5LDAuMzktMS45OSwwLjM5Yy0wLjc5LDAtMS4zOS0wLjE5LTEuOTgtMC4zOWMtMC42LTAuMi0xLTAuNi0xLjE5LTEuMTkgICAgICBjLTAuMi0wLjQtMC42LTEuMTktMC42LTEuNzljMC0wLjYtMC4yLTEuNTktMC4yLTIuMzhjMC0wLjk5LDAtMS43OSwwLjItMi4zOGMwLjItMC44LDAuNC0xLjM5LDAuNzktMS43OSAgICAgIGMwLjQtMC42LDAuOC0wLjk5LDEuMTktMS4xOWMwLjYtMC4yLDEuMi0wLjQsMS45OS0wLjRjMC43OSwwLDEuMzksMC4yLDEuOTgsMC40YzAuNiwwLjIsMSwwLjU5LDEuMiwxLjE5ICAgICAgYzAuMTksMC42LDAuNTksMS4xOSwwLjU5LDEuNzljMC4yLDAuNzksMC4yLDEuNTgsMC4yLDIuMzhDMjUuMDEsNTAuMzMsMjQuODEsNTEuMTIsMjQuODEsNTEuNzJ6Ii8+JiN4YTsJCQk8L2c+JiN4YTsJCTwvZz4mI3hhOwk8L2c+JiN4YTs8L2c+JiN4YTs8L3N2Zz4=;" vertex="1" parent="1">
          <mxGeometry x="133.42" y="190" width="80.61" height="70" as="geometry" />
        </mxCell>
        <mxCell id="VzHm-9lvFMYFwHPpRpzN-5" value="to be deployed to Azure Container Instances or AKS&#xa;" style="shape=image;verticalLabelPosition=bottom;labelBackgroundColor=#ffffff;verticalAlign=top;aspect=fixed;imageAspect=0;image=data:image/svg+xml,PHN2ZyB4bWxuczpjYz0iaHR0cDovL2NyZWF0aXZlY29tbW9ucy5vcmcvbnMjIiB4bWxuczpkYz0iaHR0cDovL3B1cmwub3JnL2RjL2VsZW1lbnRzLzEuMS8iIHhtbG5zOmlua3NjYXBlPSJodHRwOi8vd3d3Lmlua3NjYXBlLm9yZy9uYW1lc3BhY2VzL2lua3NjYXBlIiB4bWxuczpyZGY9Imh0dHA6Ly93d3cudzMub3JnLzE5OTkvMDIvMjItcmRmLXN5bnRheC1ucyMiIHhtbG5zOnNvZGlwb2RpPSJodHRwOi8vc29kaXBvZGkuc291cmNlZm9yZ2UubmV0L0RURC9zb2RpcG9kaS0wLmR0ZCIgeG1sbnM6c3ZnPSJodHRwOi8vd3d3LnczLm9yZy8yMDAwL3N2ZyIgeG1sbnM9Imh0dHA6Ly93d3cudzMub3JnLzIwMDAvc3ZnIiB4bWxuczp4bGluaz0iaHR0cDovL3d3dy53My5vcmcvMTk5OS94bGluayIgdmVyc2lvbj0iMS4xIiBpZD0ic3ZnMTY2NTAyIiBpbmtzY2FwZTp2ZXJzaW9uPSIwLjkyLjMgKDI0MDU1NDYsIDIwMTgtMDMtMTEpIiBzb2RpcG9kaTpkb2NuYW1lPSJkb2NrZXJfdG9vbHMuc3ZnIiB4PSIwcHgiIHk9IjBweCIgdmlld0JveD0iMCAwIDk5LjIyIDgzLjI0IiBzdHlsZT0iZW5hYmxlLWJhY2tncm91bmQ6bmV3IDAgMCA5OS4yMiA4My4yNDsiIHhtbDpzcGFjZT0icHJlc2VydmUiPiYjeGE7PHNvZGlwb2RpOm5hbWVkdmlldyBib3JkZXJjb2xvcj0iIzY2NjY2NiIgYm9yZGVyb3BhY2l0eT0iMSIgZml0LW1hcmdpbi1ib3R0b209IjAiIGZpdC1tYXJnaW4tbGVmdD0iMCIgZml0LW1hcmdpbi1yaWdodD0iMCIgZml0LW1hcmdpbi10b3A9IjAiIGdyaWR0b2xlcmFuY2U9IjEwIiBndWlkZXRvbGVyYW5jZT0iMTAiIGlkPSJuYW1lZHZpZXcxNjY1MDQiIGlua3NjYXBlOmN1cnJlbnQtbGF5ZXI9InN2ZzE2NjUwMiIgaW5rc2NhcGU6Y3g9IjY2LjE0MTY1NiIgaW5rc2NhcGU6Y3k9IjU1LjQ5MzEwOCIgaW5rc2NhcGU6cGFnZW9wYWNpdHk9IjAiIGlua3NjYXBlOnBhZ2VzaGFkb3c9IjIiIGlua3NjYXBlOndpbmRvdy1oZWlnaHQ9IjEwMTciIGlua3NjYXBlOndpbmRvdy1tYXhpbWl6ZWQ9IjEiIGlua3NjYXBlOndpbmRvdy13aWR0aD0iMTkyMCIgaW5rc2NhcGU6d2luZG93LXg9Ii04IiBpbmtzY2FwZTp3aW5kb3cteT0iLTgiIGlua3NjYXBlOnpvb209IjYuNTk5MDg5OCIgb2JqZWN0dG9sZXJhbmNlPSIxMCIgcGFnZWNvbG9yPSIjZmZmZmZmIiBzaG93Z3JpZD0iZmFsc2UiPiYjeGE7CTwvc29kaXBvZGk6bmFtZWR2aWV3PiYjeGE7PGcgaWQ9ImcxNjY1MDAiIHRyYW5zZm9ybT0idHJhbnNsYXRlKC03LjY1LC03LjY0OTMyOSkiPiYjeGE7CTx0aXRsZSBpZD0idGl0bGUxNjYzODQiPlBhZ2UtMTwvdGl0bGU+JiN4YTsJPGcgaWQ9Imdyb3VwMTM3Ny0xIiB0cmFuc2Zvcm09InRyYW5zbGF0ZSg3LjY1LC03LjE0MTc0KSI+JiN4YTsJCTx0aXRsZSBpZD0idGl0bGUxNjYzODYiPkRvY2tlciBUb29sczwvdGl0bGU+JiN4YTsJCTxnIGlkPSJzaGFwZTEzNzgtMiIgdHJhbnNmb3JtPSJ0cmFuc2xhdGUoMC4wNjc0MTM3KSI+JiN4YTsJCQk8dGl0bGUgaWQ9InRpdGxlMTY2Mzg4Ij5kb2NrZXJfNF88L3RpdGxlPiYjeGE7CQkJPHBhdGggaWQ9InBhdGgxNjYzOTAiIGlua3NjYXBlOmNvbm5lY3Rvci1jdXJ2YXR1cmU9IjAiIHN0eWxlPSJmaWxsOiMzRjU3NjU7IiBkPSJNNzMuMzksOTIuNzljMi4yMy0xLjkxLDQuNDYtMy44Myw2LjY5LTUuNzUgICAgIGMwLjc2LTAuNjYsMS41OS0xLjM0LDIuMzUtMi4wM2MtMC42MS0wLjc2LTEuNjItMS4zMS0yLjQ4LTEuNjRjLTEuNzMtMC42Ni0zLjQ0LTAuNDQtNS4wMywwLjQ4Yy0yLjA5LDEuMi0yLjk3LDMuMTItMi44OSw1LjUgICAgIGMwLjAzLDAuOTQsMC4yOCwxLjg0LDAuNzgsMi42NEM3Mi45OCw5Mi4yNyw3My4xOCw5Mi41NCw3My4zOSw5Mi43OXogTTc1Ljk3LDk0LjZjMS4xLDAuMzgsMi4zNCwwLjMzLDMuNDcsMC4xNCAgICAgYzAuNTctMC4yNSwyLjA0LTAuODksMi41OC0wLjhsMC4wOCwwLjAyTDgyLjE4LDk0YzAuMzMsMC4xNiwwLjY0LDAuMzgsMC44MSwwLjcyYzAuNCwwLjc5LDAuMjEsMS41Ny0wLjU3LDIuMDJsLTAuMjUsMC4xNSAgICAgYy0yLjg1LDEuNjUtNS44OSwxLjQyLTguNzMtMC4xMmMtMS4zNi0wLjczLTIuNC0xLjgyLTMuMTctMy4xNmwtMC4xOC0wLjMxYy0xLjgzLTMuMTctMS41OC02LjUsMC40OC05LjUyICAgICBjMC43Mi0xLjA0LDEuNjUtMS44NSwyLjc0LTIuNDhsMC40MS0wLjIzYzIuNjktMS41NSw1LjU3LTEuNDUsOC4zMy0wLjA5YzEuNDgsMC43MywyLjY4LDEuODMsMy41MSwzLjI2bDAuMTUsMC4yNiAgICAgYzAuNiwxLjA0LTAuMTgsMS45NS0wLjk4LDIuNTdjLTAuOTQsMC43Mi0xLjg4LDEuNTktMi43OCwyLjM2Qzc5Ljk2LDkxLjE1LDc3Ljk3LDkyLjg4LDc1Ljk3LDk0LjZ6IE05Ny4zNCw4MC4xOGgwLjMgICAgIGMwLjksMCwxLjUxLDAuNjEsMS41MSwxLjVjMCwxLjI1LTEuMiwxLjU3LTIuMjIsMS41N2MtMS4zNiwwLTIuNjQsMC44MS0zLjU3LDEuNzNjLTEuMTcsMS4xNS0xLjY3LDIuNjEtMS42Nyw0LjIydjcuMjggICAgIGMwLDAuODMtMC41MiwxLjUxLTEuMzksMS41MWgtMC4yNGMtMC44NiwwLTEuMzgtMC42OC0xLjM4LTEuNTF2LTcuN2MwLTIuOTUsMS40NC01LjM2LDMuODQtNy4wNiAgICAgQzkzLjk1LDgwLjcxLDk1LjU5LDgwLjE4LDk3LjM0LDgwLjE4eiBNNTkuODcsODUuMzRjMS4xNi0xLjE3LDIuMzQtMi4zMywzLjUyLTMuNDhjMC4zMy0wLjMyLDEuNTgtMS42OCwyLjA4LTEuNjhINjZsMC4wNiwwLjAxICAgICBjMC42OSwwLjE0LDEuMiwwLjU4LDEuMiwxLjMxdjAuM2MwLDAuNS0wLjU5LDEuMDktMC45MSwxLjQzYy0wLjY5LDAuNzQtMS40MiwxLjQ0LTIuMTMsMi4xNmwtMy42MywzLjY5ICAgICBjMS41NywxLjU2LDMuMTMsMy4xMyw0LjY4LDQuNzFjMC40MywwLjQ0LDAuODYsMC44OCwxLjI4LDEuMzJjMC4xNSwwLjE2LDAuMzcsMC4zNSwwLjUsMC41N2MwLjEzLDAuMjEsMC4yMSwwLjQ0LDAuMjEsMC42OHYwLjMxICAgICBsLTAuMDEsMC4wN2MtMC4xNywwLjY5LTAuNjEsMS4yNC0xLjM3LDEuMjRoLTAuMjRjLTAuNSwwLTEuMDYtMC41Ni0xLjQtMC44OGMtMC43LTAuNjYtMS4zOC0xLjM2LTIuMDctMi4wM2wtMi4zMS0yLjI3djMuNjIgICAgIGMwLDAuODQtMC41MiwxLjUxLTEuMzgsMS41MWgtMC4yNGMtMC44NiwwLTEuMzgtMC42Ny0xLjM4LTEuNTFWNzYuMDFjMC0wLjgzLDAuNTItMS41LDEuMzgtMS41aDAuMjRjMC44NiwwLDEuMzgsMC42NywxLjM4LDEuNSAgICAgTDU5Ljg3LDg1LjM0TDU5Ljg3LDg1LjM0eiBNNTAuMTIsODMuMzFjLTAuNDYtMC4yMS0xLjMxLTAuMjktMS44LTAuM2MtMi41MS0wLjEtNC4zMywxLjMyLTUuNCwzLjUzICAgICBjLTAuMzYsMC43Ny0wLjUzLDEuNTgtMC41MywyLjQyYzAsMi41OCwxLjM1LDQuMzgsMy42NSw1LjQ4YzAuODQsMC40LDEuOTIsMC40OCwyLjg0LDAuNDhjMC44MSwwLDEuOTUtMC41LDIuNjYtMC44NGwwLjEzLTAuMDYgICAgIGgwLjU2bDAuMDYsMC4wMmMwLjY4LDAuMTQsMS4yLDAuNTcsMS4yLDEuMzF2MC4zYzAsMS44My0zLjM1LDIuMjUtNC42MywyLjM0Yy00LjUsMC4zMS03Ljg3LTIuMTctOS4xNS02LjQ2ICAgICBjLTAuMjMtMC43NS0wLjMzLTEuNDktMC4zMy0yLjI3di0wLjZjMC0zLjI2LDEuNjItNS44NCw0LjQyLTcuNWMxLjMtMC43NywyLjczLTEuMTYsNC4yNS0xLjE2aDAuNTljMS42LDAsMy4wOCwwLjQ1LDQuNCwxLjM2ICAgICBsMC4xMSwwLjA3bDAuMDcsMC4xMmMwLjE0LDAuMjMsMC4yNywwLjUxLDAuMjcsMC43OXYwLjNjMCwwLjc2LTAuNTgsMS4xOC0xLjI3LDEuMzFsLTAuMDYsMC4wMWgtMC4xOCAgICAgQzUxLjUzLDgzLjk2LDUwLjUyLDgzLjUsNTAuMTIsODMuMzF6IE0yMi43LDg5LjAyYzAsMi4yOSwxLjEyLDMuOTcsMy4wNSw1LjE1YzAuOTEsMC41NiwxLjksMC44MSwyLjk2LDAuODEgICAgIGMyLjI2LDAsMy45My0xLjE1LDUuMDktMy4wNWMwLjU2LTAuOTEsMC44MS0xLjkxLDAuODEtMi45N2MwLTIuMTItMS4wMy0zLjc1LTIuNzgtNC45MmMtMC45Ni0wLjY1LTIuMDItMC45Ny0zLjE4LTAuOTcgICAgIGMtMi41MiwwLTQuMzMsMS4yNy01LjQyLDMuNTNDMjIuODYsODcuMzYsMjIuNyw4OC4xOCwyMi43LDg5LjAyeiBNMjguMzUsODAuMDZoMC40MmMzLjQ5LDAsNi4xNCwxLjY5LDcuODEsNC43MyAgICAgYzAuNjgsMS4yMiwxLjAzLDIuNTQsMS4wMywzLjk0djAuNTljMCwzLjI2LTEuNiw1Ljg2LTQuNDEsNy41MWMtMS4zLDAuNzYtMi43NCwxLjE1LTQuMjUsMS4xNWgtMC42Yy0zLjI2LDAtNS44NS0xLjYxLTcuNS00LjQxICAgICBjLTAuNzctMS4zLTEuMTYtMi43NC0xLjE2LTQuMjV2LTAuNTljMC0zLjI3LDEuNjItNS44NSw0LjQxLTcuNTFDMjUuNDEsODAuNDUsMjYuODQsODAuMDYsMjguMzUsODAuMDZ6IE0zLjAxLDg5LjAyICAgICBjMCwyLjM2LDEuMTQsNC4xMywzLjIsNS4yNmMwLjg0LDAuNDUsMS43NCwwLjcsMi42OSwwLjdjMi4zMSwwLDQuMDMtMS4wOSw1LjIxLTMuMDVjMC41NS0wLjkxLDAuODEtMS45MSwwLjgxLTIuOTcgICAgIGMwLTIuMDQtMC45Ny0zLjYzLTIuNjItNC44MmMtMC45OS0wLjcxLTIuMTItMS4wNy0zLjM0LTEuMDdjLTIuNTIsMC00LjMzLDEuMjctNS40MiwzLjUzQzMuMTcsODcuMzYsMy4wMSw4OC4xOCwzLjAxLDg5LjAyeiAgICAgIE0xNC45Miw4Mi4zdi02LjM1YzAtMC44MywwLjUyLTEuNSwxLjM4LTEuNWgwLjI0YzAuODcsMCwxLjM4LDAuNjcsMS4zOCwxLjV2MTMuMzdjMCwzLjI2LTEuNjEsNS44NS00LjQxLDcuNTEgICAgIGMtMS4zLDAuNzYtMi43NCwxLjE2LTQuMjUsMS4xNmgtMC42Yy0zLjI2LDAtNS44NS0xLjYyLTcuNS00LjQyQzAuMzksOTIuMjcsMCw5MC44MywwLDg5LjMydi0wLjU5YzAtMy4yNiwxLjYxLTUuODYsNC40MS03LjUxICAgICBjMS4zMS0wLjc3LDIuNzQtMS4xNiw0LjI1LTEuMTZoMC42QzExLjQ3LDgwLjA2LDEzLjM0LDgwLjkxLDE0LjkyLDgyLjN6Ii8+JiN4YTsJCTwvZz4mI3hhOwkJPGcgaWQ9InNoYXBlMTM3OS00IiB0cmFuc2Zvcm09InRyYW5zbGF0ZSgxMS44MzQzLC0yNy41NDkzKSI+JiN4YTsJCQk8dGl0bGUgaWQ9InRpdGxlMTY2MzkzIj5vdXRsaW5lXzdfPC90aXRsZT4mI3hhOwkJCTxwYXRoIGlkPSJwYXRoMTY2Mzk1IiBpbmtzY2FwZTpjb25uZWN0b3ItY3VydmF0dXJlPSIwIiBzdHlsZT0iZmlsbDojMzk0RDU0OyIgZD0iTTQ1LjQsNjAuMDloOC44N3Y5LjA3aDQuNDkgICAgIGMyLjA3LDAsNC4yLTAuMzcsNi4xNi0xLjA0YzAuOTYtMC4zMiwyLjA1LTAuNzgsMy0xLjM1Yy0xLjI2LTEuNjQtMS44OS0zLjctMi4wOC01Ljc0Yy0wLjI2LTIuNzYsMC4zLTYuMzcsMi4xNy04LjUzbDAuOTQtMS4wOCAgICAgbDEuMTEsMC44OWMyLjgsMi4yNSw1LjE1LDUuMzksNS41Niw4Ljk3YzMuMzctMC45OSw3LjMzLTAuNzYsMTAuMywwLjk2bDEuMjIsMC43bC0wLjY0LDEuMjVjLTIuNTIsNC45MS03Ljc3LDYuNDItMTIuOSw2LjE1ICAgICBjLTcuNjgsMTkuMTQtMjQuNDEsMjguMi00NC42OCwyOC4yYy0xMC40OCwwLTIwLjA5LTMuOTItMjUuNTctMTMuMjJsLTAuMDktMC4xNWwtMC43OS0xLjYyQzAuNjIsNzkuNDYsMCw3NC45OCwwLjQyLDcwLjUgICAgIGwwLjEyLTEuMzRoNy41OXYtOS4wN0gxN3YtOC44OGgxNy43NXYtOC44N2gxMC42NHYxNy43NUg0NS40eiIvPiYjeGE7CQk8L2c+JiN4YTsJCTxnIGlkPSJncm91cDEzODAtNiIgdHJhbnNmb3JtPSJ0cmFuc2xhdGUoMTMuMjcwMywtMjkuMDI4NikiPiYjeGE7CQkJPHRpdGxlIGlkPSJ0aXRsZTE2NjM5OCI+Ym9keV9jb2xvcnNfOF88L3RpdGxlPiYjeGE7CQkJPGcgaWQ9InNoYXBlMTM4MS03Ij4mI3hhOwkJCQk8dGl0bGUgaWQ9InRpdGxlMTY2NDAwIj5TaGVldC4xMzgxPC90aXRsZT4mI3hhOwkJCQk8cGF0aCBpZD0icGF0aDE2NjQwMiIgaW5rc2NhcGU6Y29ubmVjdG9yLWN1cnZhdHVyZT0iMCIgc3R5bGU9ImZpbGw6IzAwQUFEQTsiIGQ9Ik03Mi43MSw2NC45MmMwLjU5LTQuNjItMi44Ny04LjI1LTUuMDItOS45OCAgICAgIGMtMi40NywyLjg2LTIuODUsMTAuMzUsMS4wMywxMy41MWMtMi4xNywxLjkyLTYuNzMsMy42Ni0xMS40LDMuNjZIMC40NUMwLDc2Ljk5LDAuODYsODEuNDgsMi44MSw4NS4zM2wwLjY1LDEuMTggICAgICBjMC40MSwwLjY5LDAuODYsMS4zNiwxLjM0LDIuMDFsMCwwYzIuMzQsMC4xNSw0LjQ5LDAuMiw2LjQ2LDAuMTZjMCwwLDAsMCwwLjAxLDBjMy44Ny0wLjA5LDcuMDMtMC41NCw5LjQzLTEuMzcgICAgICBjMC4zNi0wLjEzLDAuNzUsMC4wNiwwLjg3LDAuNDJjMC4xMiwwLjM1LTAuMDcsMC43NC0wLjQyLDAuODdjLTAuMzIsMC4xMS0wLjY1LDAuMjEtMSwwLjMxbDAsMGMtMS44OSwwLjU0LTMuOTEsMC45LTYuNTIsMS4wNiAgICAgIGMwLjE2LDAtMC4xNiwwLjAyLTAuMTYsMC4wMmMtMC4wOSwwLjAxLTAuMiwwLjAyLTAuMjksMC4wM2MtMS4wMywwLjA1LTIuMTQsMC4wNy0zLjI3LDAuMDdjLTEuMjQsMC0yLjQ2LTAuMDMtMy44My0wLjEgICAgICBsLTAuMDMsMC4wM2M0LjczLDUuMzIsMTIuMTQsOC41MiwyMS40Myw4LjUyYzE5LjY1LDAsMzYuMzItOC43Miw0My43LTI4LjI4YzUuMjQsMC41NCwxMC4yNy0wLjc5LDEyLjU2LTUuMjYgICAgICBDODAuMSw2Mi44OSw3NS40MSw2My41Niw3Mi43MSw2NC45MnoiLz4mI3hhOwkJCTwvZz4mI3hhOwkJCTxnIGlkPSJzaGFwZTEzODItOSIgdHJhbnNmb3JtPSJ0cmFuc2xhdGUoMy41ODk0NiwtNS4xNDc2MSkiPiYjeGE7CQkJCTx0aXRsZSBpZD0idGl0bGUxNjY0MDUiPlNoZWV0LjEzODI8L3RpdGxlPiYjeGE7CQkJCTxwYXRoIGlkPSJwYXRoMTY2NDA3IiBpbmtzY2FwZTpjb25uZWN0b3ItY3VydmF0dXJlPSIwIiBzdHlsZT0iZmlsbDojMjRCOEVCOyIgZD0iTTY5LjEyLDcwLjA3YzAuNTktNC42My0yLjg3LTguMjYtNS4wMS05Ljk4ICAgICAgYy0yLjQ4LDIuODYtMi44NiwxMC4zNSwxLjAyLDEzLjUxYy0yLjE3LDEuOTItNi43MywzLjY2LTExLjQsMy42NkgwLjIzQzAsODQuNzMsMi43Nyw5MC40LDcuNjcsOTMuODNjMCwwLDAsMCwwLjAxLDAgICAgICBjMy44Ny0wLjA5LDcuMDMtMC41NSw5LjQzLTEuMzhjMC4zNi0wLjEyLDAuNzUsMC4wNywwLjg3LDAuNDNjMC4xMiwwLjM1LTAuMDcsMC43NC0wLjQyLDAuODZjLTAuMzIsMC4xMi0wLjY1LDAuMjItMSwwLjMybDAsMCAgICAgIGMtMS44OSwwLjUzLTQuMDgsMC45NC02LjY5LDEuMTFjMCwwLTAuMDctMC4wNy0wLjA3LTAuMDZjNi42OSwzLjQzLDE2LjM5LDMuNDEsMjcuNTEtMC44NmMxMi40Ny00Ljc5LDI0LjA3LTEzLjkxLDMyLjE2LTI0LjM1ICAgICAgQzY5LjM1LDY5Ljk1LDY5LjIzLDcwLjAxLDY5LjEyLDcwLjA3eiIvPiYjeGE7CQkJPC9nPiYjeGE7CQkJPGcgaWQ9InNoYXBlMTM4My0xMSIgdHJhbnNmb3JtPSJ0cmFuc2xhdGUoMC41NjA5MzMpIj4mI3hhOwkJCQk8dGl0bGUgaWQ9InRpdGxlMTY2NDEwIj5TaGVldC4xMzgzPC90aXRsZT4mI3hhOwkJCQk8cGF0aCBpZD0icGF0aDE2NjQxMiIgaW5rc2NhcGU6Y29ubmVjdG9yLWN1cnZhdHVyZT0iMCIgc3R5bGU9ImZpbGw6IzAwOEJCODsiIGQ9Ik0wLDc4LjA0YzAuMzUsMi42MSwxLjEyLDUuMDYsMi4yNSw3LjI4ICAgICAgbDAuNjUsMS4xOWMwLjQxLDAuNjksMC44NSwxLjM2LDEuMzQsMi4wMWMyLjM0LDAuMTUsNC40OSwwLjIsNi40NiwwLjE2YzMuODgtMC4wOSw3LjA0LTAuNTQsOS40NC0xLjM4ICAgICAgYzAuMzYtMC4xMiwwLjc0LDAuMDcsMC44NywwLjQzYzAuMTIsMC4zNS0wLjA3LDAuNzQtMC40MiwwLjg3Yy0wLjMyLDAuMTEtMC42NiwwLjIxLTEsMC4zMWwwLDBjLTEuODksMC41NC00LjA3LDAuOTItNi42OCwxLjA4ICAgICAgQzEyLjgyLDkwLDEyLjY2LDkwLDEyLjU3LDkwLjAxYy0xLjAyLDAuMDUtMi4xMiwwLjA5LTMuMjYsMC4wOWMtMS4yNCwwLTIuNTEtMC4wMi0zLjg3LTAuMDljNC43NCw1LjMyLDEyLjE5LDguNTMsMjEuNDgsOC41MyAgICAgIGMxNi44MiwwLDMxLjQ2LTYuMzksMzkuOTYtMjAuNUwwLDc4LjA0eiIvPiYjeGE7CQkJPC9nPiYjeGE7CQkJPGcgaWQ9InNoYXBlMTM4NC0xMyIgdHJhbnNmb3JtPSJ0cmFuc2xhdGUoNC4zMzM1NiwtNS4xMTE5OSkiPiYjeGE7CQkJCTx0aXRsZSBpZD0idGl0bGUxNjY0MTUiPlNoZWV0LjEzODQ8L3RpdGxlPiYjeGE7CQkJCTxwYXRoIGlkPSJwYXRoMTY2NDE3IiBpbmtzY2FwZTpjb25uZWN0b3ItY3VydmF0dXJlPSIwIiBzdHlsZT0iZmlsbDojMDM5QkM2OyIgZD0iTTAsODMuMTVjMS4wMSw0LjU5LDMuNDIsOC4xOSw2LjkzLDEwLjY0ICAgICAgYzMuODgtMC4wOCw3LjA0LTAuNTQsOS40NC0xLjM3YzAuMzUtMC4xMywwLjc0LDAuMDYsMC44NywwLjQyYzAuMTIsMC4zNi0wLjA3LDAuNzQtMC40MywwLjg3Yy0wLjMyLDAuMTEtMC42NSwwLjIxLTAuOTksMC4zMSAgICAgIGwwLDBjLTEuODksMC41NC00LjEyLDAuOTItNi43MywxLjA5YzYuNjksMy40MywxNi4zNiwzLjM4LDI3LjQ3LTAuODljNi43My0yLjU5LDEzLjItNi40MywxOS4wMS0xMS4wN0wwLDgzLjE1eiIvPiYjeGE7CQkJPC9nPiYjeGE7CQk8L2c+JiN4YTsJCTxnIGlkPSJzaGFwZTEzODUtMTUiIHRyYW5zZm9ybT0idHJhbnNsYXRlKDE2Ljk1OSwtMzcuNTAzNikiPiYjeGE7CQkJPHRpdGxlIGlkPSJ0aXRsZTE2NjQyMSI+U2hlZXQuMTM4NTwvdGl0bGU+JiN4YTsJCQk8cGF0aCBpZD0icGF0aDE2NjQyMyIgaW5rc2NhcGU6Y29ubmVjdG9yLWN1cnZhdHVyZT0iMCIgc3R5bGU9ImZpbGw6IzM5NEQ1NDsiIGQ9Ik02LjIsOTguNTRjMS4xMywwLDIuMjEtMC4wMywzLjI0LTAuMDkgICAgIGMwLjA5LTAuMDEsMC4xNy0wLjAxLDAuMjYtMC4wMmMwLjAxLDAsMC4wMSwwLDAuMDEsMGMyLjYxLTAuMTYsNC44Ny0wLjUxLDYuNzUtMS4wNWwwLDBjMC4zNS0wLjA5LDAuNjgtMC4yLDEtMC4zMSAgICAgYzAuMzUtMC4xMiwwLjU0LTAuNTEsMC40Mi0wLjg3Yy0wLjEyLTAuMzUtMC41MS0wLjU0LTAuODctMC40MmMtMi40LDAuODMtNS41NiwxLjI5LTkuNDMsMS4zN2wwLDBjLTEuOTgsMC4wNS00LjEzLDAtNi40Ny0wLjE1ICAgICBsMCwwYy0wLjEyLTAuMDEtMC4yNC0wLjAyLTAuMzYtMC4wM2MtMC4zNy0wLjAyLTAuNywwLjI2LTAuNzIsMC42NGMtMC4wMywwLjM3LDAuMjUsMC43LDAuNjMsMC43MyAgICAgYzAuNDgsMC4wMywwLjk1LDAuMDYsMS40MSwwLjA4YzAuMDcsMCwwLjE0LDAuMDEsMC4yMiwwLjAxQzMuNjUsOTguNSw0Ljk2LDk4LjU0LDYuMiw5OC41NEw2LjIsOTguNTR6Ii8+JiN4YTsJCTwvZz4mI3hhOwkJPGcgaWQ9Imdyb3VwMTM4Ni0xNyIgdHJhbnNmb3JtPSJ0cmFuc2xhdGUoMjEuNDQyNiwtNTYuODI5NykiPiYjeGE7CQkJPHRpdGxlIGlkPSJ0aXRsZTE2NjQyNiI+Q29udGFpbmVyc184XzwvdGl0bGU+JiN4YTsJCQk8ZyBpZD0ic2hhcGUxMzg3LTE4Ij4mI3hhOwkJCQk8dGl0bGUgaWQ9InRpdGxlMTY2NDI4Ij5TaGVldC4xMzg3PC90aXRsZT4mI3hhOwkJCQk8cGF0aCBpZD0icGF0aDE2NjQzMCIgaW5rc2NhcGU6Y29ubmVjdG9yLWN1cnZhdHVyZT0iMCIgc3R5bGU9ImZpbGw6IzAwQUNEMzsiIGQ9Ik02LjQ0LDkxLjQ5aDAuNjF2Ni40SDYuNDRWOTEuNDl6IE01LjI4LDkxLjQ5ICAgICAgaDAuNjN2Ni40SDUuMjhWOTEuNDl6IE00LjExLDkxLjQ5aDAuNjN2Ni40SDQuMTFWOTEuNDl6IE0yLjk1LDkxLjQ5aDAuNjN2Ni40SDIuOTVMMi45NSw5MS40OXogTTEuNzgsOTEuNDloMC42M3Y2LjRIMS43OCAgICAgIEwxLjc4LDkxLjQ5eiBNMC42NCw5MS40OWgwLjYxdjYuNEgwLjY0TDAuNjQsOTEuNDl6IE0wLDkwLjg1aDcuNjl2Ny42OUgwVjkwLjg1eiIvPiYjeGE7CQkJPC9nPiYjeGE7CQkJPGcgaWQ9InNoYXBlMTM4OC0yMCIgdHJhbnNmb3JtPSJ0cmFuc2xhdGUoOC44NzE5LC04Ljg3MzE3KSI+JiN4YTsJCQkJPHRpdGxlIGlkPSJ0aXRsZTE2NjQzMyI+U2hlZXQuMTM4ODwvdGl0bGU+JiN4YTsJCQkJPHBhdGggaWQ9InBhdGgxNjY0MzUiIGlua3NjYXBlOmNvbm5lY3Rvci1jdXJ2YXR1cmU9IjAiIHN0eWxlPSJmaWxsOiMwMEFDRDM7IiBkPSJNNi40NCw5MS40OWgwLjYxdjYuNDFINi40NFY5MS40OXogICAgICAgTTUuMjgsOTEuNDloMC42M3Y2LjQxSDUuMjhWOTEuNDl6IE00LjExLDkxLjQ5aDAuNjN2Ni40MUg0LjExVjkxLjQ5eiBNMi45NSw5MS40OWgwLjYzdjYuNDFIMi45NUwyLjk1LDkxLjQ5eiBNMS43OCw5MS40OSAgICAgIGgwLjYzdjYuNDFIMS43OEwxLjc4LDkxLjQ5eiBNMC42NCw5MS40OWgwLjYxdjYuNDFIMC42NEwwLjY0LDkxLjQ5eiBNMCw5MC44NWg3LjY5djcuNjlIMFY5MC44NXoiLz4mI3hhOwkJCTwvZz4mI3hhOwkJCTxnIGlkPSJzaGFwZTEzODktMjIiIHRyYW5zZm9ybT0idHJhbnNsYXRlKDguODcxOSkiPiYjeGE7CQkJCTx0aXRsZSBpZD0idGl0bGUxNjY0MzgiPlNoZWV0LjEzODk8L3RpdGxlPiYjeGE7CQkJCTxwYXRoIGlkPSJwYXRoMTY2NDQwIiBpbmtzY2FwZTpjb25uZWN0b3ItY3VydmF0dXJlPSIwIiBzdHlsZT0iZmlsbDojMjBDMkVGOyIgZD0iTTYuNDQsOTEuNDloMC42MXY2LjRINi40NFY5MS40OXogTTUuMjgsOTEuNDkgICAgICBoMC42M3Y2LjRINS4yOFY5MS40OXogTTQuMTEsOTEuNDloMC42M3Y2LjRINC4xMVY5MS40OXogTTIuOTUsOTEuNDloMC42M3Y2LjRIMi45NUwyLjk1LDkxLjQ5eiBNMS43OCw5MS40OWgwLjYzdjYuNEgxLjc4ICAgICAgTDEuNzgsOTEuNDl6IE0wLjY0LDkxLjQ5aDAuNjF2Ni40SDAuNjRMMC42NCw5MS40OXogTTAsOTAuODVoNy42OXY3LjY5SDBWOTAuODV6Ii8+JiN4YTsJCQk8L2c+JiN4YTsJCQk8ZyBpZD0ic2hhcGUxMzkwLTI0IiB0cmFuc2Zvcm09InRyYW5zbGF0ZSgxNy43NDYzKSI+JiN4YTsJCQkJPHRpdGxlIGlkPSJ0aXRsZTE2NjQ0MyI+U2hlZXQuMTM5MDwvdGl0bGU+JiN4YTsJCQkJPHBhdGggaWQ9InBhdGgxNjY0NDUiIGlua3NjYXBlOmNvbm5lY3Rvci1jdXJ2YXR1cmU9IjAiIHN0eWxlPSJmaWxsOiMwMEFDRDM7IiBkPSJNNi40NCw5MS40OWgwLjYxdjYuNEg2LjQ0VjkxLjQ5eiBNNS4yOCw5MS40OSAgICAgIGgwLjYzdjYuNEg1LjI4VjkxLjQ5eiBNNC4xMSw5MS40OWgwLjYzdjYuNEg0LjExVjkxLjQ5eiBNMi45NSw5MS40OWgwLjYzdjYuNEgyLjk1TDIuOTUsOTEuNDl6IE0xLjc4LDkxLjQ5aDAuNjN2Ni40SDEuNzggICAgICBMMS43OCw5MS40OXogTTAuNjQsOTEuNDloMC42MXY2LjRIMC42NEwwLjY0LDkxLjQ5eiBNMCw5MC44NWg3LjY5djcuNjlIMFY5MC44NXoiLz4mI3hhOwkJCTwvZz4mI3hhOwkJCTxnIGlkPSJzaGFwZTEzOTEtMjYiIHRyYW5zZm9ybT0idHJhbnNsYXRlKDE3Ljc0NjMsLTguODczMTcpIj4mI3hhOwkJCQk8dGl0bGUgaWQ9InRpdGxlMTY2NDQ4Ij5TaGVldC4xMzkxPC90aXRsZT4mI3hhOwkJCQk8cGF0aCBpZD0icGF0aDE2NjQ1MCIgaW5rc2NhcGU6Y29ubmVjdG9yLWN1cnZhdHVyZT0iMCIgc3R5bGU9ImZpbGw6IzIwQzJFRjsiIGQ9Ik02LjQ0LDkxLjQ5aDAuNjF2Ni40MUg2LjQ0VjkxLjQ5eiAgICAgICBNNS4yOCw5MS40OWgwLjYzdjYuNDFINS4yOFY5MS40OXogTTQuMTEsOTEuNDloMC42M3Y2LjQxSDQuMTFWOTEuNDl6IE0yLjk1LDkxLjQ5aDAuNjN2Ni40MUgyLjk1TDIuOTUsOTEuNDl6IE0xLjc4LDkxLjQ5ICAgICAgaDAuNjN2Ni40MUgxLjc4TDEuNzgsOTEuNDl6IE0wLjY0LDkxLjQ5aDAuNjF2Ni40MUgwLjY0TDAuNjQsOTEuNDl6IE0wLDkwLjg1aDcuNjl2Ny42OUgwVjkwLjg1eiIvPiYjeGE7CQkJPC9nPiYjeGE7CQkJPGcgaWQ9InNoYXBlMTM5Mi0yOCIgdHJhbnNmb3JtPSJ0cmFuc2xhdGUoMjYuNjE4MikiPiYjeGE7CQkJCTx0aXRsZSBpZD0idGl0bGUxNjY0NTMiPlNoZWV0LjEzOTI8L3RpdGxlPiYjeGE7CQkJCTxwYXRoIGlkPSJwYXRoMTY2NDU1IiBpbmtzY2FwZTpjb25uZWN0b3ItY3VydmF0dXJlPSIwIiBzdHlsZT0iZmlsbDojMjBDMkVGOyIgZD0iTTYuNDQsOTEuNDloMC42MXY2LjRINi40NFY5MS40OXogTTUuMjgsOTEuNDkgICAgICBoMC42M3Y2LjRINS4yOFY5MS40OXogTTQuMTEsOTEuNDloMC42M3Y2LjRINC4xMVY5MS40OXogTTIuOTUsOTEuNDloMC42M3Y2LjRIMi45NUwyLjk1LDkxLjQ5eiBNMS43OCw5MS40OWgwLjYzdjYuNEgxLjc4ICAgICAgTDEuNzgsOTEuNDl6IE0wLjY0LDkxLjQ5aDAuNjF2Ni40SDAuNjRMMC42NCw5MS40OXogTTAsOTAuODVoNy42OXY3LjY5SDBWOTAuODV6Ii8+JiN4YTsJCQk8L2c+JiN4YTsJCQk8ZyBpZD0ic2hhcGUxMzkzLTMwIiB0cmFuc2Zvcm09InRyYW5zbGF0ZSgyNi42MTgyLC04Ljg3MzE3KSI+JiN4YTsJCQkJPHRpdGxlIGlkPSJ0aXRsZTE2NjQ1OCI+U2hlZXQuMTM5MzwvdGl0bGU+JiN4YTsJCQkJPHBhdGggaWQ9InBhdGgxNjY0NjAiIGlua3NjYXBlOmNvbm5lY3Rvci1jdXJ2YXR1cmU9IjAiIHN0eWxlPSJmaWxsOiMwMEFDRDM7IiBkPSJNNi40NCw5MS40OWgwLjYxdjYuNDFINi40NFY5MS40OXogICAgICAgTTUuMjgsOTEuNDloMC42M3Y2LjQxSDUuMjhWOTEuNDl6IE00LjExLDkxLjQ5aDAuNjN2Ni40MUg0LjExVjkxLjQ5eiBNMi45NSw5MS40OWgwLjYzdjYuNDFIMi45NUwyLjk1LDkxLjQ5eiBNMS43OCw5MS40OSAgICAgIGgwLjYzdjYuNDFIMS43OEwxLjc4LDkxLjQ5eiBNMC42NCw5MS40OWgwLjYxdjYuNDFIMC42NEwwLjY0LDkxLjQ5eiBNMCw5MC44NWg3LjY5djcuNjlIMFY5MC44NXoiLz4mI3hhOwkJCTwvZz4mI3hhOwkJCTxnIGlkPSJzaGFwZTEzOTQtMzIiIHRyYW5zZm9ybT0idHJhbnNsYXRlKDI2LjYxODIsLTE3Ljc0NjMpIj4mI3hhOwkJCQk8dGl0bGUgaWQ9InRpdGxlMTY2NDYzIj5TaGVldC4xMzk0PC90aXRsZT4mI3hhOwkJCQk8cGF0aCBpZD0icGF0aDE2NjQ2NSIgaW5rc2NhcGU6Y29ubmVjdG9yLWN1cnZhdHVyZT0iMCIgc3R5bGU9ImZpbGw6IzIwQzJFRjsiIGQ9Ik02LjQ0LDkxLjQ5aDAuNjF2Ni40MUg2LjQ0VjkxLjQ5eiAgICAgICBNNS4yOCw5MS40OWgwLjYzdjYuNDFINS4yOFY5MS40OXogTTQuMTEsOTEuNDloMC42M3Y2LjQxSDQuMTFWOTEuNDl6IE0yLjk1LDkxLjQ5aDAuNjN2Ni40MUgyLjk1TDIuOTUsOTEuNDl6IE0xLjc4LDkxLjQ5ICAgICAgaDAuNjN2Ni40MUgxLjc4TDEuNzgsOTEuNDl6IE0wLjY0LDkxLjQ5aDAuNjF2Ni40MUgwLjY0TDAuNjQsOTEuNDl6IE0wLDkwLjg1aDcuNjl2Ny42OUgwVjkwLjg1eiIvPiYjeGE7CQkJPC9nPiYjeGE7CQkJPGcgaWQ9InNoYXBlMTM5NS0zNCIgdHJhbnNmb3JtPSJ0cmFuc2xhdGUoMzUuNDkxNCkiPiYjeGE7CQkJCTx0aXRsZSBpZD0idGl0bGUxNjY0NjgiPlNoZWV0LjEzOTU8L3RpdGxlPiYjeGE7CQkJCTxwYXRoIGlkPSJwYXRoMTY2NDcwIiBpbmtzY2FwZTpjb25uZWN0b3ItY3VydmF0dXJlPSIwIiBzdHlsZT0iZmlsbDojMDBBQ0QzOyIgZD0iTTYuNDQsOTEuNDloMC42MXY2LjRINi40NFY5MS40OXogTTUuMjgsOTEuNDkgICAgICBoMC42M3Y2LjRINS4yOFY5MS40OXogTTQuMTEsOTEuNDloMC42M3Y2LjRINC4xMVY5MS40OXogTTIuOTUsOTEuNDloMC42M3Y2LjRIMi45NUwyLjk1LDkxLjQ5eiBNMS43OCw5MS40OWgwLjYzdjYuNEgxLjc4ICAgICAgTDEuNzgsOTEuNDl6IE0wLjY0LDkxLjQ5aDAuNjF2Ni40SDAuNjRMMC42NCw5MS40OXogTTAsOTAuODVoNy42OXY3LjY5SDBWOTAuODV6Ii8+JiN4YTsJCQk8L2c+JiN4YTsJCTwvZz4mI3hhOwkJPGcgaWQ9InNoYXBlMTM5Ni0zNiIgdHJhbnNmb3JtPSJ0cmFuc2xhdGUoMzUuNDAyNCwtNDAuMTIpIj4mI3hhOwkJCTx0aXRsZSBpZD0idGl0bGUxNjY0NzQiPlNoZWV0LjEzOTY8L3RpdGxlPiYjeGE7CQkJPHBhdGggaWQ9InBhdGgxNjY0NzYiIGlua3NjYXBlOmNvbm5lY3Rvci1jdXJ2YXR1cmU9IjAiIHN0eWxlPSJmaWxsOiNENEVERjE7IiBkPSJNMi4xMiw5NC4yOWMxLjE3LDAsMi4xMiwwLjk1LDIuMTIsMi4xMiAgICAgYzAsMS4xOC0wLjk1LDIuMTMtMi4xMiwyLjEzUzAsOTcuNTksMCw5Ni40MUMwLDk1LjI0LDAuOTUsOTQuMjksMi4xMiw5NC4yOXoiLz4mI3hhOwkJPC9nPiYjeGE7CQk8ZyBpZD0ic2hhcGUxMzk3LTM4IiB0cmFuc2Zvcm09InRyYW5zbGF0ZSgzNi4wMDQsLTQwLjcyMykiPiYjeGE7CQkJPHRpdGxlIGlkPSJ0aXRsZTE2NjQ3OSI+U2hlZXQuMTM5NzwvdGl0bGU+JiN4YTsJCQk8cGF0aCBpZD0icGF0aDE2NjQ4MSIgaW5rc2NhcGU6Y29ubmVjdG9yLWN1cnZhdHVyZT0iMCIgc3R5bGU9ImZpbGw6IzM5NEQ1NDsiIGQ9Ik0xLjUyLDk1LjVjMC4xOSwwLDAuMzgsMC4wNCwwLjU1LDAuMSAgICAgYy0wLjE5LDAuMTEtMC4zMSwwLjMxLTAuMzEsMC41NGMwLDAuMzQsMC4yOCwwLjYyLDAuNjIsMC42MmMwLjIzLDAsMC40NC0wLjEzLDAuNTQtMC4zM2MwLjA4LDAuMTgsMC4xMiwwLjM4LDAuMTIsMC41OSAgICAgYzAsMC44NC0wLjY4LDEuNTItMS41MiwxLjUyQzAuNjgsOTguNTQsMCw5Ny44NiwwLDk3LjAyUzAuNjgsOTUuNSwxLjUyLDk1LjV6Ii8+JiN4YTsJCTwvZz4mI3hhOwkJPGcgaWQ9InNoYXBlMTM5OC00MCIgdHJhbnNmb3JtPSJ0cmFuc2xhdGUoMCwtNDguMDcyMykiPiYjeGE7CQkJPHRpdGxlIGlkPSJ0aXRsZTE2NjQ4NCI+U2hlZXQuMTM5ODwvdGl0bGU+JiN4YTsJCQk8cGF0aCBpZD0icGF0aDE2NjQ4NiIgaW5rc2NhcGU6Y29ubmVjdG9yLWN1cnZhdHVyZT0iMCIgc3R5bGU9ImZpbGw6IzM5NEQ1NDsiIGQ9Ik0wLDk3Ljg1aDQ2LjQ3aDUuNzVoNDYuNDcgICAgIGMtMi4xNS0wLjU1LTYuOC0xLjI4LTYuMDMtNC4xYy0zLjkxLDQuNTItMTMuMzMsMy4xNy0xNS43MSwwLjk0Yy0yLjY1LDMuODUtMTguMDcsMi4zOS0xOS4xNC0wLjYxYy0zLjMyLDMuOS0xMy42MSwzLjktMTYuOTMsMCAgICAgYy0xLjA4LDIuOTktMTYuNDksNC40NS0xOS4xNCwwLjYxYy0yLjM4LDIuMjMtMTEuOCwzLjU4LTE1LjcxLTAuOTRDNi44LDk2LjU3LDIuMTUsOTcuMywwLDk3Ljg1eiIvPiYjeGE7CQk8L2c+JiN4YTsJCTxnIGlkPSJzaGFwZTEzOTktNDIiIHRyYW5zZm9ybT0idHJhbnNsYXRlKDE5LjAyODUsLTI5LjAyODYpIj4mI3hhOwkJCTx0aXRsZSBpZD0idGl0bGUxNjY0ODkiPlNoZWV0LjEzOTk8L3RpdGxlPiYjeGE7CQkJPHBhdGggaWQ9InBhdGgxNjY0OTEiIGlua3NjYXBlOmNvbm5lY3Rvci1jdXJ2YXR1cmU9IjAiIHN0eWxlPSJmaWxsOiNCRkRCRTA7IiBkPSJNMjQuMTQsOTguNDlDMTguODgsOTYsMTYsOTIuNjEsMTQuMzksODguOTEgICAgIGMtMS45NSwwLjU1LTQuMjksMC45MS03LjAyLDEuMDZjLTEuMDMsMC4wNi0yLjExLDAuMDktMy4yNCwwLjA5Yy0xLjMxLDAtMi42OS0wLjA0LTQuMTMtMC4xMmM0LjgyLDQuODIsMTAuNzUsOC41MywyMS43Miw4LjU5ICAgICBDMjIuNTMsOTguNTQsMjMuMzQsOTguNTIsMjQuMTQsOTguNDl6Ii8+JiN4YTsJCTwvZz4mI3hhOwkJPGcgaWQ9InNoYXBlMTQwMC00NCIgdHJhbnNmb3JtPSJ0cmFuc2xhdGUoMjYuMzk4MiwtMzUuMjQzNCkiPiYjeGE7CQkJPHRpdGxlIGlkPSJ0aXRsZTE2NjQ5NCI+U2hlZXQuMTQwMDwvdGl0bGU+JiN4YTsJCQk8cGF0aCBpZD0icGF0aDE2NjQ5NiIgaW5rc2NhcGU6Y29ubmVjdG9yLWN1cnZhdHVyZT0iMCIgc3R5bGU9ImZpbGw6I0Q0RURGMTsiIGQ9Ik04Ljk3LDk4LjU0Yy0wLjcyLTAuOTktMS40My0yLjIzLTEuOTQtMy40MiAgICAgYy0xLjk2LDAuNTYtNC4zLDAuOTItNy4wMywxLjA3QzEuODcsOTcuMjEsNC41NSw5OC4xNSw4Ljk3LDk4LjU0eiIvPiYjeGE7CQk8L2c+JiN4YTsJPC9nPiYjeGE7PC9nPiYjeGE7PC9zdmc+;" vertex="1" parent="1">
          <mxGeometry x="870" y="640" width="99" height="83" as="geometry" />
        </mxCell>
        <mxCell id="VzHm-9lvFMYFwHPpRpzN-21" style="edgeStyle=orthogonalEdgeStyle;rounded=0;orthogonalLoop=1;jettySize=auto;html=1;exitX=1;exitY=0.5;exitDx=0;exitDy=0;" edge="1" parent="1" source="VzHm-9lvFMYFwHPpRpzN-6" target="2KKbN_FUtunxiqhwRvi9-25">
          <mxGeometry relative="1" as="geometry" />
        </mxCell>
        <mxCell id="VzHm-9lvFMYFwHPpRpzN-41" style="edgeStyle=orthogonalEdgeStyle;rounded=0;orthogonalLoop=1;jettySize=auto;html=1;exitX=1;exitY=0.5;exitDx=0;exitDy=0;entryX=0;entryY=0.5;entryDx=0;entryDy=0;" edge="1" parent="1" source="VzHm-9lvFMYFwHPpRpzN-6" target="2KKbN_FUtunxiqhwRvi9-30">
          <mxGeometry relative="1" as="geometry" />
        </mxCell>
        <mxCell id="VzHm-9lvFMYFwHPpRpzN-6" value="read pdfs&amp;nbsp; and populate db" style="image;aspect=fixed;perimeter=ellipsePerimeter;html=1;align=center;shadow=0;dashed=0;spacingTop=3;image=img/lib/active_directory/generic_server.svg;" vertex="1" parent="1">
          <mxGeometry x="250" y="400" width="44.8" height="80" as="geometry" />
        </mxCell>
        <mxCell id="VzHm-9lvFMYFwHPpRpzN-9" style="edgeStyle=orthogonalEdgeStyle;rounded=0;orthogonalLoop=1;jettySize=auto;html=1;exitX=0.5;exitY=1;exitDx=0;exitDy=0;entryX=0.25;entryY=1;entryDx=0;entryDy=0;" edge="1" parent="1" source="2KKbN_FUtunxiqhwRvi9-9" target="2KKbN_FUtunxiqhwRvi9-9">
          <mxGeometry relative="1" as="geometry" />
        </mxCell>
        <mxCell id="2KKbN_FUtunxiqhwRvi9-25" value="Parse data&lt;div&gt;and get embeddings&lt;/div&gt;" style="whiteSpace=wrap;html=1;" parent="1" vertex="1">
          <mxGeometry x="317.71000000000004" y="290" width="90" height="60" as="geometry" />
        </mxCell>
        <mxCell id="VzHm-9lvFMYFwHPpRpzN-35" style="edgeStyle=orthogonalEdgeStyle;rounded=0;orthogonalLoop=1;jettySize=auto;html=1;exitX=0.5;exitY=1;exitDx=0;exitDy=0;entryX=0.5;entryY=0;entryDx=0;entryDy=0;entryPerimeter=0;" edge="1" parent="1" source="2KKbN_FUtunxiqhwRvi9-30" target="2KKbN_FUtunxiqhwRvi9-20">
          <mxGeometry relative="1" as="geometry" />
        </mxCell>
        <mxCell id="VzHm-9lvFMYFwHPpRpzN-39" style="edgeStyle=orthogonalEdgeStyle;rounded=0;orthogonalLoop=1;jettySize=auto;html=1;exitX=0.5;exitY=1;exitDx=0;exitDy=0;entryX=0;entryY=0.5;entryDx=0;entryDy=0;" edge="1" parent="1" source="VzHm-9lvFMYFwHPpRpzN-37" target="VzHm-9lvFMYFwHPpRpzN-6">
          <mxGeometry relative="1" as="geometry" />
        </mxCell>
        <mxCell id="VzHm-9lvFMYFwHPpRpzN-37" value="Download PDF Files&lt;div&gt;From Azure Storage Container&lt;/div&gt;&lt;div&gt;&lt;br&gt;&lt;/div&gt;" style="whiteSpace=wrap;html=1;" vertex="1" parent="1">
          <mxGeometry x="124.03" y="330" width="115.97" height="70" as="geometry" />
        </mxCell>
        <mxCell id="VzHm-9lvFMYFwHPpRpzN-40" style="edgeStyle=orthogonalEdgeStyle;rounded=0;orthogonalLoop=1;jettySize=auto;html=1;entryX=0.5;entryY=0;entryDx=0;entryDy=0;" edge="1" parent="1" source="2KKbN_FUtunxiqhwRvi9-52" target="2KKbN_FUtunxiqhwRvi9-25">
          <mxGeometry relative="1" as="geometry" />
        </mxCell>
        <mxCell id="VzHm-9lvFMYFwHPpRpzN-42" value="Flask Web App" style="image;aspect=fixed;perimeter=ellipsePerimeter;html=1;align=center;shadow=0;dashed=0;spacingTop=3;image=img/lib/active_directory/web_server.svg;" vertex="1" parent="1">
          <mxGeometry x="980" y="110" width="40" height="50" as="geometry" />
        </mxCell>
        <mxCell id="VzHm-9lvFMYFwHPpRpzN-44" value="" style="image;sketch=0;aspect=fixed;html=1;points=[];align=center;fontSize=12;image=img/lib/mscae/Docker.svg;" vertex="1" parent="1">
          <mxGeometry x="1020" y="100" width="36.59" height="30" as="geometry" />
        </mxCell>
        <mxCell id="VzHm-9lvFMYFwHPpRpzN-45" value="" style="image;sketch=0;aspect=fixed;html=1;points=[];align=center;fontSize=12;image=img/lib/mscae/Docker.svg;" vertex="1" parent="1">
          <mxGeometry x="600" y="460" width="36.59" height="30" as="geometry" />
        </mxCell>
        <mxCell id="VzHm-9lvFMYFwHPpRpzN-46" value="" style="image;sketch=0;aspect=fixed;html=1;points=[];align=center;fontSize=12;image=img/lib/mscae/Docker.svg;" vertex="1" parent="1">
          <mxGeometry x="294.8" y="450" width="36.59" height="30" as="geometry" />
        </mxCell>
      </root>
    </mxGraphModel>
  </diagram>
</mxfile>
